<svg width="42" height="41" viewBox="0 0 42 41" fill="none" xmlns="http://www.w3.org/2000/svg">
<path d="M0 20.5C0 9.17816 9.17816 0 20.5 0H21.5C32.8218 0 42 9.17816 42 20.5C42 31.8218 32.8218 41 21.5 41H20.5C9.17816 41 0 31.8218 0 20.5Z" fill="#F9F9F9"/>
<path d="M42 20.5C42 31.8217 32.5978 41 21 41C9.40333 41 0 31.8217 0 20.5C0 9.17944 9.40333 0 21 0C32.5978 0 42 9.17944 42 20.5Z" fill="#FFCC4D"/>
<path d="M33.1998 20.2688C33.1298 20.1151 31.451 16.5139 28 16.5139C24.5501 16.5139 22.8701 20.1151 22.8001 20.2688C22.6928 20.5046 22.7628 20.7802 22.9693 20.9419C23.1735 21.1036 23.4663 21.1093 23.681 20.9579C23.695 20.9476 25.1533 19.9306 28 19.9306C30.8303 19.9306 32.2863 20.9339 32.319 20.9567C32.4216 21.0319 32.5453 21.0695 32.6666 21.0695C32.795 21.0695 32.9245 21.0273 33.0306 20.9453C33.2371 20.7836 33.3083 20.5057 33.1998 20.2688ZM19.1998 20.2688C19.1298 20.1151 17.451 16.5139 14 16.5139C10.5501 16.5139 8.87013 20.1151 8.80013 20.2688C8.69279 20.5046 8.76279 20.7802 8.96813 20.9419C9.17346 21.1036 9.46629 21.1093 9.67979 20.9579C9.69496 20.9476 11.1521 19.9306 14 19.9306C16.8303 19.9306 18.2863 20.9339 18.319 20.9567C18.4216 21.0319 18.5453 21.0695 18.6666 21.0695C18.795 21.0695 18.9245 21.0273 19.0306 20.9453C19.2383 20.7836 19.3071 20.5057 19.1998 20.2688ZM21 25.0556C16.7731 25.0556 13.9685 24.575 10.5 23.9167C9.70779 23.7675 8.16663 23.9167 8.16663 26.1945C8.16663 30.75 13.5275 36.4445 21 36.4445C28.4713 36.4445 33.8333 30.75 33.8333 26.1945C33.8333 23.9167 32.2921 23.7664 31.5 23.9167C28.0315 24.575 25.2268 25.0556 21 25.0556Z" fill="#664500"/>
<path d="M10.5 26.1943C10.5 26.1943 14 27.3332 21 27.3332C28 27.3332 31.5 26.1943 31.5 26.1943C31.5 26.1943 29.1667 30.7499 21 30.7499C12.8333 30.7499 10.5 26.1943 10.5 26.1943Z" fill="white"/>
</svg>
