<svg width="42" height="42" viewBox="0 0 42 42" fill="none" xmlns="http://www.w3.org/2000/svg">
<path d="M36.5142 24.2748C41.4107 22.6847 42.3791 20.5625 41.4037 16.7895C40.2931 17.1488 38.9479 16.7883 38.7531 16.1852C38.5571 15.5867 39.4309 14.5017 40.5416 14.14C39.1147 10.5152 37.0836 9.36951 32.1871 10.9585C30.3134 11.5675 28.4094 12.6992 26.7562 14.0327C27.5122 12.0482 27.9999 9.88751 27.9999 7.91701C27.9999 2.76968 26.2814 1.19118 22.3917 0.954346C22.3917 2.12101 21.6311 3.28768 20.9999 3.28768C20.3687 3.28768 19.6069 2.12101 19.6069 0.954346C15.7172 1.19118 13.9999 2.76968 13.9999 7.91701C13.9999 9.88751 14.4864 12.0482 15.2436 14.0315C13.5916 12.6992 11.6864 11.5687 9.81275 10.9597C4.91625 9.36835 2.88508 10.5152 1.45708 14.1412C2.56658 14.5028 3.44158 15.5855 3.24675 16.1863C3.05191 16.7872 1.70675 17.15 0.597248 16.7907C-0.379252 20.5625 0.591414 22.6847 5.48558 24.2748C7.35925 24.8827 9.56541 25.088 11.6852 24.9807C9.90725 26.1403 8.24358 27.6022 7.08508 29.1958C4.05875 33.3608 4.52191 35.6475 7.52958 38.1255C8.21558 37.1817 9.51641 36.6847 10.0286 37.0557C10.5396 37.4255 10.4696 38.8185 9.78358 39.7623C13.0689 41.8565 15.3871 41.5882 18.4122 37.4255C19.5707 35.8318 20.4457 33.796 20.9999 31.7473C21.5541 33.7972 22.4302 35.8318 23.5876 37.4255C26.6139 41.5905 28.9309 41.8565 32.2174 39.7623C31.5326 38.8173 31.4602 37.4267 31.9724 37.0545C32.4822 36.6847 33.7842 37.1793 34.4714 38.1243C37.4779 35.6475 37.9399 33.3608 34.9159 29.1958C33.7574 27.6022 32.0926 26.1403 30.3157 24.9807C32.4344 25.088 34.6394 24.8827 36.5142 24.2748ZM20.9999 23.7265C20.8109 23.3858 20.5881 23.0988 20.3139 22.8993C20.0409 22.6998 19.6979 22.5773 19.3152 22.5015C19.5812 22.2168 19.7854 21.9158 19.8904 21.5938C19.9954 21.273 20.0071 20.909 19.9592 20.5217C20.3116 20.6862 20.6616 20.7877 20.9999 20.7877C21.3382 20.7877 21.6882 20.6862 22.0429 20.5205C21.9951 20.9078 22.0067 21.2718 22.1117 21.5927C22.2167 21.9147 22.4209 22.2157 22.6857 22.5003C22.3042 22.5762 21.9612 22.6987 21.6882 22.8982C21.4129 23.0988 21.1889 23.3858 20.9999 23.7265Z" fill="#F4ABBA"/>
</svg>
