<svg width="1440" height="1024" viewBox="0 0 1440 1024" fill="none" xmlns="http://www.w3.org/2000/svg">
<rect width="1440" height="1024" fill="white"/>
<g opacity="0.1" clip-path="url(#clip0)">
<path d="M673.193 328.286H668.135V197.624C668.135 187.693 666.061 177.859 662.032 168.684C658.002 159.509 652.096 151.172 644.65 144.15C637.205 137.127 628.365 131.557 618.637 127.757C608.909 123.956 598.482 122 587.952 122H294.434C283.905 122 273.478 123.956 263.749 127.756C254.021 131.557 245.182 137.127 237.736 144.15C230.29 151.172 224.384 159.508 220.354 168.684C216.325 177.859 214.251 187.692 214.251 197.623V914.445C214.251 934.502 222.698 953.737 237.736 967.919C252.773 982.101 273.168 990.069 294.434 990.069H587.952C609.217 990.069 629.613 982.101 644.65 967.919C659.687 953.737 668.135 934.502 668.135 914.445V421.293H673.193V328.286Z" fill="#E6E6E6"/>
<path d="M591.187 141.675H552.873C554.635 145.749 555.308 150.169 554.832 154.546C554.356 158.923 552.746 163.122 550.143 166.774C547.541 170.426 544.027 173.418 539.909 175.487C535.792 177.556 531.199 178.639 526.533 178.639H358.381C353.716 178.639 349.122 177.556 345.005 175.487C340.888 173.418 337.373 170.426 334.771 166.774C332.169 163.122 330.559 158.923 330.083 154.546C329.607 150.169 330.279 145.749 332.041 141.675H296.256C280.375 141.675 265.144 147.625 253.914 158.216C242.685 168.807 236.376 183.171 236.376 198.149V913.919C236.376 921.335 237.925 928.679 240.934 935.531C243.943 942.383 248.354 948.609 253.914 953.853C259.475 959.097 266.076 963.257 273.341 966.095C280.606 968.933 288.392 970.394 296.256 970.394H591.187C599.051 970.394 606.837 968.933 614.102 966.095C621.367 963.257 627.968 959.097 633.529 953.853C639.089 948.609 643.5 942.383 646.509 935.531C649.518 928.679 651.067 921.336 651.067 913.919V198.149C651.067 190.733 649.518 183.389 646.509 176.537C643.5 169.686 639.089 163.46 633.529 158.216C627.968 152.971 621.367 148.812 614.102 145.973C606.837 143.135 599.051 141.675 591.187 141.675Z" fill="white"/>
<path d="M387.155 1018.8H383.361L390.95 540.499H394.744L387.155 1018.8Z" fill="#3F3D56"/>
<path d="M490.86 1018.8H487.066L479.478 540.499H483.272L490.86 1018.8Z" fill="#3F3D56"/>
<path d="M480.743 550.041H392.215V553.62H480.743V550.041Z" fill="#3F3D56"/>
<path d="M480.743 612.065H392.215V615.643H480.743V612.065Z" fill="#3F3D56"/>
<path d="M483.272 674.089H390.95V677.667H483.272V674.089Z" fill="#3F3D56"/>
<path d="M484.537 736.113H390.95V739.691H484.537V736.113Z" fill="#3F3D56"/>
<path d="M485.802 798.136H389.685V801.715H485.802V798.136Z" fill="#3F3D56"/>
<path d="M485.802 860.16H388.421V863.738H485.802V860.16Z" fill="#3F3D56"/>
<path d="M487.066 922.184H387.156V925.762H487.066V922.184Z" fill="#3F3D56"/>
<path d="M488.331 984.208H384.626V987.786H488.331V984.208Z" fill="#3F3D56"/>
<path d="M432.264 773.524C461.608 773.524 485.396 751.089 485.396 723.413C485.396 695.738 461.608 673.302 432.264 673.302C402.919 673.302 379.131 695.738 379.131 723.413C379.131 751.089 402.919 773.524 432.264 773.524Z" fill="#2F2E41"/>
<path d="M463.516 758.049L447.633 760.761L452.785 787.6L468.668 784.888L463.516 758.049Z" fill="#2F2E41"/>
<path d="M431.75 763.473L415.866 766.184L421.018 793.024L436.901 790.312L431.75 763.473Z" fill="#2F2E41"/>
<path d="M429.45 798.667C435.119 794.139 438.255 788.843 436.455 786.838C434.654 784.833 428.599 786.878 422.93 791.406C417.261 795.934 414.125 801.23 415.925 803.235C417.726 805.24 423.781 803.195 429.45 798.667Z" fill="#2F2E41"/>
<path d="M460.555 793.356C466.224 788.828 469.36 783.532 467.56 781.527C465.759 779.522 459.704 781.568 454.035 786.096C448.366 790.624 445.23 795.92 447.03 797.925C448.831 799.93 454.886 797.884 460.555 793.356Z" fill="#2F2E41"/>
<path d="M428.544 728.282C438.573 728.282 446.703 720.614 446.703 711.156C446.703 701.697 438.573 694.029 428.544 694.029C418.515 694.029 410.385 701.697 410.385 711.156C410.385 720.614 418.515 728.282 428.544 728.282Z" fill="white"/>
<path d="M421.08 710.726C424.423 710.726 427.134 708.17 427.134 705.017C427.134 701.864 424.423 699.308 421.08 699.308C417.737 699.308 415.027 701.864 415.027 705.017C415.027 708.17 417.737 710.726 421.08 710.726Z" fill="#3F3D56"/>
<path d="M474.178 668.898C474.977 650.346 458.024 634.633 436.312 633.801C414.6 632.969 396.352 647.334 395.553 665.886C394.754 684.438 409.846 688.653 431.558 689.485C453.269 690.316 473.379 687.45 474.178 668.898Z" fill="#1DA1F2"/>
<path d="M409.098 719.882C410.127 715.648 399.368 709.709 385.066 706.617C370.765 703.525 358.337 704.452 357.308 708.686C356.279 712.92 367.038 718.859 381.34 721.951C395.641 725.042 408.069 724.116 409.098 719.882Z" fill="#2F2E41"/>
<path d="M513.395 736.24C514.424 732.006 503.665 726.067 489.363 722.975C475.062 719.884 462.635 720.81 461.605 725.044C460.576 729.278 471.336 735.217 485.637 738.309C499.938 741.401 512.366 740.474 513.395 736.24Z" fill="#2F2E41"/>
<path d="M446.857 743.161C447.143 744.637 447.117 746.151 446.783 747.618C446.448 749.084 445.81 750.474 444.905 751.708C444.001 752.942 442.847 753.995 441.511 754.809C440.174 755.622 438.681 756.179 437.116 756.447C435.551 756.716 433.945 756.691 432.391 756.374C430.836 756.058 429.363 755.455 428.055 754.601C426.748 753.747 425.631 752.658 424.77 751.397C423.909 750.136 423.319 748.727 423.036 747.251L423.031 747.229C421.84 741.024 426.927 738.828 433.506 737.705C440.086 736.582 445.666 736.956 446.857 743.161Z" fill="white"/>
<path d="M615.467 426.442L275.363 455.19C273.693 455.329 272.033 454.838 270.747 453.824C269.46 452.811 268.652 451.357 268.501 449.782L260.94 370.215C260.792 368.64 261.313 367.074 262.388 365.861C263.463 364.647 265.004 363.886 266.673 363.743L606.777 334.995C608.447 334.855 610.107 335.347 611.394 336.36C612.68 337.374 613.488 338.828 613.639 340.402L621.201 419.97C621.348 421.545 620.828 423.111 619.753 424.324C618.678 425.537 617.137 426.299 615.467 426.442ZM266.899 366.119C265.897 366.204 264.973 366.661 264.328 367.389C263.683 368.117 263.37 369.057 263.459 370.002L271.02 449.569C271.111 450.514 271.596 451.386 272.367 451.995C273.139 452.603 274.136 452.898 275.138 452.814L615.241 424.066C616.243 423.98 617.168 423.523 617.813 422.795C618.458 422.067 618.77 421.128 618.681 420.183L611.12 340.615C611.029 339.671 610.545 338.798 609.773 338.19C609.001 337.582 608.005 337.287 607.003 337.371L266.899 366.119Z" fill="#E6E6E6"/>
<path d="M315.106 430.788C329.774 430.788 341.664 419.573 341.664 405.74C341.664 391.906 329.774 380.691 315.106 380.691C300.438 380.691 288.547 391.906 288.547 405.74C288.547 419.573 300.438 430.788 315.106 430.788Z" fill="#3F3D56"/>
<path d="M374.618 383.943C374.039 383.992 373.476 384.148 372.961 384.403C372.446 384.657 371.989 385.004 371.616 385.425C371.243 385.845 370.962 386.331 370.789 386.854C370.615 387.378 370.552 387.928 370.604 388.474C370.656 389.02 370.821 389.551 371.091 390.037C371.36 390.523 371.729 390.954 372.175 391.305C372.621 391.657 373.136 391.922 373.691 392.086C374.246 392.249 374.829 392.308 375.408 392.259L583.249 374.691C583.828 374.642 584.391 374.486 584.906 374.232C585.421 373.978 585.878 373.631 586.25 373.21C586.623 372.789 586.904 372.303 587.078 371.78C587.252 371.257 587.314 370.707 587.262 370.161C587.21 369.615 587.045 369.084 586.776 368.598C586.506 368.112 586.138 367.681 585.692 367.33C585.246 366.978 584.73 366.713 584.176 366.549C583.621 366.385 583.037 366.326 582.458 366.375L374.618 383.943Z" fill="#E6E6E6"/>
<path d="M376.989 408.892C376.408 408.938 375.843 409.093 375.326 409.346C374.809 409.6 374.35 409.947 373.975 410.368C373.601 410.789 373.318 411.276 373.143 411.8C372.969 412.325 372.905 412.876 372.958 413.424C373.01 413.971 373.176 414.503 373.446 414.99C373.717 415.477 374.087 415.908 374.535 416.26C374.983 416.611 375.5 416.876 376.057 417.039C376.613 417.201 377.199 417.259 377.779 417.207L585.619 399.639C586.788 399.539 587.866 399.006 588.618 398.157C589.37 397.307 589.733 396.211 589.628 395.109C589.524 394.007 588.959 392.989 588.06 392.28C587.16 391.57 585.998 391.226 584.829 391.323L376.989 408.892Z" fill="#E6E6E6"/>
<path d="M491.332 445.128C496.702 431.878 497.48 419.848 493.069 418.258C488.659 416.668 480.73 426.121 475.36 439.371C469.99 452.621 469.213 464.652 473.623 466.242C478.034 467.831 485.962 458.379 491.332 445.128Z" fill="#2F2E41"/>
<path d="M486.766 489.27C491.585 461.265 471.42 434.88 441.727 430.335C412.035 425.791 384.058 444.809 379.239 472.813C374.421 500.817 394.585 527.203 424.278 531.747C453.971 536.291 481.948 517.274 486.766 489.27Z" fill="#2F2E41"/>
<path d="M424.729 521.356H408.182V549.316H424.729V521.356Z" fill="#2F2E41"/>
<path d="M457.823 521.356H441.276V549.316H457.823V521.356Z" fill="#2F2E41"/>
<path d="M421.971 554.519C429.587 554.519 435.76 552.335 435.76 549.642C435.76 546.948 429.587 544.765 421.971 544.765C414.356 544.765 408.182 546.948 408.182 549.642C408.182 552.335 414.356 554.519 421.971 554.519Z" fill="#2F2E41"/>
<path d="M455.065 553.868C462.681 553.868 468.854 551.685 468.854 548.991C468.854 546.298 462.681 544.115 455.065 544.115C447.45 544.115 441.276 546.298 441.276 548.991C441.276 551.685 447.45 553.868 455.065 553.868Z" fill="#2F2E41"/>
<path d="M380.168 433.269C375.77 414.693 389.829 395.923 411.569 391.345C433.308 386.766 454.497 398.114 458.895 416.69C463.293 435.265 448.885 442.117 427.146 446.695C405.406 451.273 384.566 451.845 380.168 433.269Z" fill="#1DA1F2"/>
<path d="M396.261 468.212C398.284 464.188 388.908 455.999 375.319 449.92C361.729 443.841 349.072 442.175 347.049 446.199C345.025 450.222 354.402 458.412 367.991 464.491C381.581 470.57 394.238 472.236 396.261 468.212Z" fill="#2F2E41"/>
<path d="M104.844 1001.89C134.925 1001.89 159.31 978.893 159.31 950.523C159.31 922.152 134.925 899.153 104.844 899.153C74.7626 899.153 50.377 922.152 50.377 950.523C50.377 978.893 74.7626 1001.89 104.844 1001.89Z" fill="#2F2E41"/>
<path d="M96.5703 990.838H80.0234V1018.8H96.5703V990.838Z" fill="#2F2E41"/>
<path d="M129.664 990.838H113.117V1018.8H129.664V990.838Z" fill="#2F2E41"/>
<path d="M93.8124 1024C101.428 1024 107.602 1021.82 107.602 1019.12C107.602 1016.43 101.428 1014.25 93.8124 1014.25C86.1969 1014.25 80.0233 1016.43 80.0233 1019.12C80.0233 1021.82 86.1969 1024 93.8124 1024Z" fill="#2F2E41"/>
<path d="M126.906 1023.35C134.522 1023.35 140.695 1021.17 140.695 1018.47C140.695 1015.78 134.522 1013.6 126.906 1013.6C119.291 1013.6 113.117 1015.78 113.117 1018.47C113.117 1021.17 119.291 1023.35 126.906 1023.35Z" fill="#2F2E41"/>
<path d="M106.223 955.074C116.504 955.074 124.838 947.214 124.838 937.517C124.838 927.821 116.504 919.961 106.223 919.961C95.9417 919.961 87.6074 927.821 87.6074 937.517C87.6074 947.214 95.9417 955.074 106.223 955.074Z" fill="white"/>
<path d="M106.223 943.37C109.65 943.37 112.428 940.75 112.428 937.518C112.428 934.286 109.65 931.666 106.223 931.666C102.796 931.666 100.018 934.286 100.018 937.518C100.018 940.75 102.796 943.37 106.223 943.37Z" fill="#3F3D56"/>
<path d="M52.0091 902.75C47.6112 884.175 61.6696 865.404 83.4096 860.826C105.15 856.248 126.339 867.595 130.736 886.171C135.134 904.747 120.727 911.598 98.9866 916.176C77.2467 920.755 56.4071 921.326 52.0091 902.75Z" fill="#E6E6E6"/>
<path d="M144.558 767.005C149.928 753.755 150.706 741.724 146.295 740.134C141.885 738.544 133.956 747.997 128.586 761.247C123.216 774.498 122.439 786.528 126.849 788.118C131.26 789.708 139.188 780.255 144.558 767.005Z" fill="#2F2E41"/>
<path d="M139.992 811.146C144.81 783.142 124.646 756.756 94.953 752.211C65.2603 747.667 37.2834 766.685 32.465 794.689C27.6465 822.693 47.8111 849.079 77.5038 853.623C107.197 858.168 135.173 839.15 139.992 811.146Z" fill="#2F2E41"/>
<path d="M77.955 843.232H61.4082V871.193H77.955V843.232Z" fill="#2F2E41"/>
<path d="M111.049 843.232H94.5019V871.193H111.049V843.232Z" fill="#2F2E41"/>
<path d="M75.1973 876.395C82.8128 876.395 88.9863 874.211 88.9863 871.518C88.9863 868.825 82.8128 866.641 75.1973 866.641C67.5818 866.641 61.4082 868.825 61.4082 871.518C61.4082 874.211 67.5818 876.395 75.1973 876.395Z" fill="#2F2E41"/>
<path d="M108.291 875.744C115.906 875.744 122.08 873.561 122.08 870.868C122.08 868.174 115.906 865.991 108.291 865.991C100.675 865.991 94.5019 868.174 94.5019 870.868C94.5019 873.561 100.675 875.744 108.291 875.744Z" fill="#2F2E41"/>
<path d="M87.6074 807.469C97.8883 807.469 106.223 799.608 106.223 789.912C106.223 780.216 97.8883 772.356 87.6074 772.356C77.3265 772.356 68.9922 780.216 68.9922 789.912C68.9922 799.608 77.3265 807.469 87.6074 807.469Z" fill="white"/>
<path d="M87.6074 795.764C91.0344 795.764 93.8125 793.144 93.8125 789.912C93.8125 786.68 91.0344 784.06 87.6074 784.06C84.1804 784.06 81.4023 786.68 81.4023 789.912C81.4023 793.144 84.1804 795.764 87.6074 795.764Z" fill="#3F3D56"/>
<path d="M33.3939 755.145C28.996 736.569 43.0545 717.799 64.7944 713.221C86.5343 708.643 107.723 719.99 112.121 738.566C116.519 757.142 102.111 763.993 80.3713 768.571C58.6314 773.149 37.7918 773.721 33.3939 755.145Z" fill="#1DA1F2"/>
<path d="M49.4869 790.088C51.5103 786.065 42.134 777.875 28.5444 771.796C14.9548 765.718 2.29801 764.051 0.274626 768.075C-1.74876 772.099 7.62745 780.288 21.2171 786.367C34.8067 792.446 47.4635 794.112 49.4869 790.088Z" fill="#2F2E41"/>
<path d="M59.4745 821.449C59.4745 826.477 73.2006 836.405 88.4316 836.405C103.663 836.405 117.943 822.25 117.943 817.222C117.943 812.195 103.662 818.198 88.4316 818.198C73.2007 818.198 59.4745 816.421 59.4745 821.449Z" fill="white"/>
<path d="M320.41 804.123C325.78 790.873 326.558 778.842 322.147 777.252C317.737 775.662 309.808 785.115 304.438 798.365C299.068 811.616 298.291 823.646 302.701 825.236C307.112 826.826 315.04 817.373 320.41 804.123Z" fill="#2F2E41"/>
<path d="M327.226 858.998C332.045 830.994 311.88 804.609 282.187 800.064C252.494 795.52 224.518 814.537 219.699 842.542C214.881 870.546 235.045 896.932 264.738 901.476C294.431 906.02 322.408 887.003 327.226 858.998Z" fill="#2F2E41"/>
<path d="M248.643 891.086H265.189L261.951 924.569L248.643 919.045V891.086Z" fill="#2F2E41"/>
<path d="M262.631 934.407C265.147 933.133 264.266 926.97 260.664 920.642C257.061 914.314 252.101 910.217 249.585 911.491C247.069 912.765 247.95 918.928 251.552 925.256C255.155 931.584 260.115 935.681 262.631 934.407Z" fill="#2F2E41"/>
<path d="M284.716 891.172H301.263L298.025 924.656L284.716 919.132V891.172Z" fill="#2F2E41"/>
<path d="M298.705 934.494C301.221 933.22 300.34 927.057 296.737 920.729C293.135 914.401 288.175 910.304 285.659 911.578C283.143 912.852 284.023 919.015 287.626 925.343C291.228 931.671 296.189 935.768 298.705 934.494Z" fill="#2F2E41"/>
<path d="M274.842 855.322C285.122 855.322 293.457 847.461 293.457 837.765C293.457 828.069 285.122 820.208 274.842 820.208C264.561 820.208 256.226 828.069 256.226 837.765C256.226 847.461 264.561 855.322 274.842 855.322Z" fill="white"/>
<path d="M274.842 843.618C278.269 843.618 281.047 840.997 281.047 837.765C281.047 834.533 278.269 831.913 274.842 831.913C271.415 831.913 268.636 834.533 268.636 837.765C268.636 840.997 271.415 843.618 274.842 843.618Z" fill="#3F3D56"/>
<path d="M220.628 802.998C216.23 784.422 230.289 765.652 252.029 761.074C273.768 756.496 294.957 767.843 299.355 786.419C303.753 804.995 289.345 811.846 267.606 816.424C245.866 821.002 225.026 821.574 220.628 802.998Z" fill="#F2F2F2"/>
<path d="M232.089 835.667C235.887 833.021 231.722 821.627 222.786 810.216C213.85 798.806 203.527 791.701 199.729 794.347C195.931 796.993 200.096 808.387 209.032 819.798C217.968 831.208 228.291 838.313 232.089 835.667Z" fill="#2F2E41"/>
<path d="M300.037 877.257C300.037 873.114 288.725 864.931 276.172 864.931C263.619 864.931 251.849 876.597 251.849 880.741C251.849 884.884 263.619 879.937 276.172 879.937C288.725 879.937 300.037 881.401 300.037 877.257Z" fill="white"/>
<path d="M242.981 807.763C227.201 807.769 211.575 804.843 196.996 799.15C182.416 793.458 169.169 785.112 158.011 774.589C146.853 764.065 138.003 751.571 131.968 737.821C125.932 724.07 122.829 709.333 122.836 694.451C122.836 694.214 122.836 693.964 122.85 693.727C123.218 631.673 177.11 581.138 242.981 581.138C270.084 581.142 296.391 589.787 317.627 605.67C338.864 621.552 353.784 643.74 359.963 668.629C366.143 693.517 363.22 719.646 351.668 742.77C340.117 765.894 320.616 784.656 296.332 796.009C279.76 803.786 261.492 807.811 242.981 807.763ZM242.981 583.523C211.929 583.588 182.158 595.207 160.137 615.856C138.116 636.505 125.625 664.516 125.378 693.801C125.364 694.055 125.365 694.258 125.365 694.451C125.357 722.582 136.682 749.665 157.046 770.218C177.411 790.772 205.296 803.26 235.055 805.156C264.814 807.052 294.226 798.213 317.336 780.429C340.447 762.646 355.531 737.245 359.534 709.368C361.795 693.684 360.47 677.725 355.648 662.563C350.826 647.402 342.618 633.389 331.577 621.468C320.536 609.547 306.917 599.993 291.636 593.448C276.354 586.903 259.764 583.519 242.981 583.523Z" fill="#3F3D56"/>
<path d="M297.391 699.936L215.158 655.159C214.774 654.95 214.337 654.839 213.893 654.839C213.449 654.839 213.013 654.95 212.629 655.159C212.244 655.368 211.925 655.669 211.703 656.032C211.481 656.395 211.364 656.806 211.364 657.225V746.78C211.364 747.198 211.481 747.61 211.703 747.972C211.925 748.335 212.244 748.636 212.629 748.845C213.013 749.055 213.449 749.165 213.893 749.165C214.337 749.165 214.774 749.055 215.158 748.845L297.391 704.068C297.776 703.859 298.095 703.558 298.317 703.195C298.539 702.832 298.656 702.421 298.656 702.002C298.656 701.583 298.539 701.172 298.317 700.809C298.095 700.447 297.776 700.146 297.391 699.936L215.158 655.159C214.774 654.95 214.337 654.839 213.893 654.839C213.449 654.839 213.013 654.95 212.629 655.159C212.244 655.368 211.925 655.669 211.703 656.032C211.481 656.395 211.364 656.806 211.364 657.225V746.78C211.364 747.198 211.481 747.61 211.703 747.972C211.925 748.335 212.244 748.636 212.629 748.845C213.013 749.055 213.449 749.165 213.893 749.165C214.337 749.165 214.774 749.055 215.158 748.845L297.391 704.068C297.776 703.859 298.095 703.558 298.317 703.195C298.539 702.832 298.656 702.421 298.656 702.002C298.656 701.583 298.539 701.172 298.317 700.809C298.095 700.447 297.776 700.146 297.391 699.936Z" fill="#1DA1F2"/>
<path d="M287.245 1016.41C324.264 1016.41 354.274 1015.34 354.274 1014.03C354.274 1012.71 324.264 1011.64 287.245 1011.64C250.227 1011.64 220.217 1012.71 220.217 1014.03C220.217 1015.34 250.227 1016.41 287.245 1016.41Z" fill="#E6E6E6"/>
<path d="M973.971 993.75C1010.99 993.75 1041 992.682 1041 991.365C1041 990.047 1010.99 988.979 973.971 988.979C936.953 988.979 906.943 990.047 906.943 991.365C906.943 992.682 936.953 993.75 973.971 993.75Z" fill="#E6E6E6"/>
<path d="M973.65 989.355L673.078 836.535C671.603 835.783 670.505 834.51 670.024 832.995C669.543 831.48 669.719 829.848 670.512 828.455L710.707 758.136C711.504 756.745 712.854 755.709 714.46 755.256C716.066 754.802 717.797 754.968 719.273 755.716L1019.85 908.537C1021.32 909.289 1022.42 910.562 1022.9 912.077C1023.38 913.591 1023.21 915.224 1022.41 916.617L982.217 986.936C981.42 988.327 980.07 989.363 978.464 989.816C976.858 990.27 975.127 990.104 973.65 989.355ZM718.073 757.816C717.187 757.367 716.148 757.267 715.185 757.54C714.221 757.812 713.411 758.433 712.933 759.268L672.739 829.587C672.263 830.423 672.157 831.402 672.446 832.311C672.734 833.22 673.393 833.984 674.278 834.435L974.851 987.256C975.737 987.705 976.775 987.804 977.739 987.532C978.703 987.26 979.513 986.638 979.991 985.804L1020.18 915.485C1020.66 914.649 1020.77 913.669 1020.48 912.761C1020.19 911.852 1019.53 911.088 1018.65 910.637L718.073 757.816Z" fill="#E6E6E6"/>
<path d="M735.139 840.983C749.807 840.983 761.697 829.769 761.697 815.935C761.697 802.102 749.807 790.887 735.139 790.887C720.471 790.887 708.58 802.102 708.58 815.935C708.58 829.769 720.471 840.983 735.139 840.983Z" fill="#1DA1F2"/>
<path d="M797.532 828.688C797.021 828.427 796.46 828.264 795.881 828.208C795.303 828.153 794.718 828.205 794.161 828.362C793.604 828.519 793.085 828.778 792.635 829.125C792.184 829.471 791.81 829.898 791.534 830.38C791.258 830.863 791.086 831.392 791.027 831.938C790.968 832.483 791.023 833.035 791.19 833.56C791.357 834.085 791.632 834.574 791.999 834.999C792.367 835.424 792.819 835.777 793.331 836.037L977.014 929.427C977.526 929.688 978.087 929.851 978.665 929.906C979.244 929.962 979.828 929.91 980.385 929.753C980.942 929.596 981.461 929.336 981.912 928.99C982.363 928.644 982.737 928.217 983.013 927.734C983.289 927.252 983.461 926.723 983.52 926.177C983.579 925.631 983.523 925.08 983.356 924.555C983.19 924.03 982.915 923.54 982.547 923.115C982.18 922.69 981.727 922.338 981.215 922.078L797.532 828.688Z" fill="#E6E6E6"/>
<path d="M784.93 850.736C783.896 850.21 782.684 850.094 781.559 850.411C780.435 850.729 779.49 851.455 778.933 852.43C778.376 853.404 778.252 854.548 778.589 855.608C778.926 856.669 779.695 857.56 780.729 858.085L964.412 951.476C964.923 951.736 965.484 951.898 966.062 951.954C966.641 952.01 967.225 951.957 967.782 951.8C968.339 951.643 968.857 951.384 969.308 951.037C969.759 950.691 970.132 950.264 970.408 949.782C970.684 949.299 970.856 948.77 970.916 948.225C970.975 947.679 970.919 947.128 970.752 946.603C970.586 946.078 970.311 945.589 969.944 945.164C969.576 944.739 969.124 944.386 968.612 944.126L784.93 850.736Z" fill="#E6E6E6"/>
</g>
<defs>
<clipPath id="clip0">
<rect width="1041" height="902" fill="white" transform="translate(0 122)"/>
</clipPath>
</defs>
</svg>
