<svg width="388" height="388" viewBox="0 0 388 388" fill="none" xmlns="http://www.w3.org/2000/svg">
<circle cx="194" cy="194" r="194" fill="#E6E6E6"/>
<mask id="mask0" mask-type="alpha" maskUnits="userSpaceOnUse" x="0" y="0" width="388" height="388">
<circle cx="194" cy="194" r="194" fill="white"/>
</mask>
<g mask="url(#mask0)">
<path d="M256.004 231.485C244.88 220.727 226.992 221.563 216.92 233.311C206.985 244.898 208.684 262.422 220.658 271.886L286.612 324.013C296.395 331.745 310.586 330.126 318.375 320.389C325.683 311.255 324.841 298.06 316.433 289.928L256.004 231.485Z" fill="black"/>
<path d="M195.465 411.906C219.204 411.906 238.448 402.79 238.448 391.546C238.448 380.301 219.204 371.186 195.465 371.186C171.727 371.186 152.483 380.301 152.483 391.546C152.483 402.79 171.727 411.906 195.465 411.906Z" fill="#1E1425"/>
<rect x="134.045" y="218.037" width="69.3582" height="128.625" rx="34.6791" transform="rotate(17.962 134.045 218.037)" fill="black"/>
<rect x="177.071" y="197.453" width="33.3596" height="57.1373" rx="16.6798" fill="#2D2928"/>
<path d="M160.315 252.568C170.155 245.377 167.884 219.832 174.318 219.832C194.565 237.619 191.442 268.084 184.536 311.227C173.939 258.623 167.979 263.543 160.315 252.568Z" fill="#5A5E65"/>
<path d="M230.862 250.865C221.023 243.674 223.293 218.129 216.86 218.129C196.613 235.916 199.735 266.381 206.642 309.524C217.238 256.92 223.199 261.84 230.862 250.865Z" fill="#5A5E65"/>
<path d="M143.302 243.988C144.887 233.291 153.949 225.457 164.768 225.375L196.999 225.133L226.968 228.108C237.171 229.121 245.496 236.923 246.99 247.095C250.509 271.064 256.271 314.896 256.331 345.309C256.416 389.123 264.02 393.334 252.271 399.044C240.522 404.753 146.433 403.697 133.57 394.763C120.707 385.829 128.676 376.578 128.641 358.405C128.614 344.811 138.379 277.199 143.302 243.988Z" fill="#070317"/>
<path d="M180.841 264.933C166.387 262.248 135.22 233.051 151.481 217.948C161.87 205.363 178.583 222.143 180.841 230.534C182.649 237.246 187.617 253.746 190.779 258.221C194.393 261.437 195.296 267.618 180.841 264.933Z" fill="#22202A"/>
<path d="M208.428 264.933C222.883 262.248 254.05 233.051 237.789 217.948C227.4 205.363 210.687 222.143 208.428 230.534C206.621 237.246 201.653 253.746 198.491 258.221C194.877 261.437 193.974 267.618 208.428 264.933Z" fill="#22202A"/>
<path d="M171.278 252.816V291.854" stroke="#19181E" stroke-width="14" stroke-linecap="round"/>
<path d="M215.38 252.816V284.046" stroke="#19181E" stroke-width="14" stroke-linecap="round"/>
<path d="M336.325 177.978C336.175 176.733 337.277 174.981 339.24 174.491C342.079 174.552 362.177 197.347 362.494 199.129C362.811 200.91 360.64 202.816 358.7 202.242C356.76 201.668 336.476 179.224 336.325 177.978Z" fill="#4D3D2C"/>
<path d="M329.477 183.689C329.326 182.443 330.429 180.692 332.392 180.201C335.23 180.262 355.329 203.057 355.646 204.839C355.962 206.62 353.792 208.526 351.852 207.952C349.912 207.378 329.628 184.934 329.477 183.689Z" fill="#4D3D2C"/>
<path d="M320.822 190.018C320.666 188.728 321.81 186.915 323.847 186.407C326.792 186.471 347.651 210.078 347.979 211.923C348.308 213.768 346.055 215.741 344.042 215.146C342.029 214.552 320.979 191.308 320.822 190.018Z" fill="#4D3D2C"/>
<path d="M169.616 296.611C179.095 289.811 177.974 280.302 183.811 266.09C190.295 250.305 207.234 234.681 220.01 242.667C227.107 247.103 211.845 253.828 208.653 261.831C205.562 269.583 210.332 275.976 212.557 278.334C221.429 287.738 231.758 278.946 234.561 281.174C240.061 286.749 238.287 307.636 238.287 315.421C238.287 327.132 241.307 328.364 247.337 329.084C255.006 329.999 264.432 321.551 270.76 329.084C277.088 336.617 248.058 343.32 234.561 354.458C221.064 365.597 229.771 387.52 202.088 408.579C189.868 417.875 158.782 424.579 134.632 402.261C110.482 379.945 100.603 358.717 114.252 329.084C124.117 307.667 153.291 308.322 169.616 296.611Z" fill="#4062DA"/>
<path d="M150.994 340.621C154.588 338.568 161.316 347.587 168.77 355.911C177.117 363.9 186.163 372.436 183.464 374.153C180.765 375.87 174.651 371.301 172.028 369.47C169.405 367.639 163.223 366.263 158.543 361.016C153.864 355.768 153.623 350.439 152.786 348.113C151.948 345.788 147.4 342.673 150.994 340.621Z" fill="#6E8EFF"/>
<path d="M216.204 325.014L203.454 310.755C201.457 308.522 197.962 308.521 195.964 310.752C194.258 312.656 194.254 315.537 195.954 317.446L208.673 331.733C210.759 334.076 214.454 333.969 216.4 331.509C217.923 329.584 217.84 326.843 216.204 325.014Z" fill="#63503C" fill-opacity="0.21"/>
<path d="M203.389 314.661L202.502 313.596L198.776 316.967L199.84 318.032L203.389 314.661Z" fill="#AD947A" fill-opacity="0.21"/>
<path d="M205.518 316.791L204.631 315.726L200.905 319.097L201.969 320.162L205.518 316.791Z" fill="#AD947A" fill-opacity="0.21"/>
<path d="M207.293 319.274L206.406 318.209L202.68 321.581L203.744 322.646L207.293 319.274Z" fill="#AD947A" fill-opacity="0.21"/>
<path d="M209.135 321.487L208.248 320.422L204.522 323.793L205.586 324.858L209.135 321.487Z" fill="#AD947A" fill-opacity="0.21"/>
<path d="M211.264 323.261L210.377 322.196L206.651 325.568L207.715 326.633L211.264 323.261Z" fill="#AD947A" fill-opacity="0.21"/>
<path d="M213.394 325.39L212.506 324.325L208.781 327.697L209.845 328.762L213.394 325.39Z" fill="#AD947A" fill-opacity="0.21"/>
<path d="M199.453 338.675L187.582 325.399C185.353 322.907 181.468 322.859 179.18 325.296C177.159 327.446 177.114 330.784 179.077 332.988L190.919 346.29C193.236 348.892 197.321 348.836 199.565 346.17C201.399 343.992 201.351 340.797 199.453 338.675Z" fill="#63503C" fill-opacity="0.21"/>
<path d="M187.132 330.004L186.245 328.939L182.519 332.311L183.583 333.375L187.132 330.004Z" fill="#AD947A" fill-opacity="0.21"/>
<path d="M189.261 332.133L188.374 331.068L184.648 334.44L185.712 335.505L189.261 332.133Z" fill="#AD947A" fill-opacity="0.21"/>
<path d="M191.036 334.618L190.148 333.552L186.422 336.924L187.487 337.989L191.036 334.618Z" fill="#AD947A" fill-opacity="0.21"/>
<path d="M192.81 336.747L191.923 335.682L188.197 339.054L189.261 340.118L192.81 336.747Z" fill="#AD947A" fill-opacity="0.21"/>
<path d="M194.939 338.876L194.052 337.811L190.326 341.183L191.391 342.248L194.939 338.876Z" fill="#AD947A" fill-opacity="0.21"/>
<path d="M197.069 340.651L196.182 339.586L192.456 342.958L193.52 344.022L197.069 340.651Z" fill="#AD947A" fill-opacity="0.21"/>
<path d="M319.029 198.37C318.395 201.481 316.031 205.76 314.929 207.512L326.209 219.468C326.878 218.595 329.356 216.696 333.913 216.084C339.609 215.319 343.63 209.903 347.485 203.951C351.34 198 369.75 192.006 358.636 180.585C347.522 169.165 343.866 182.398 334.538 186.99C325.21 191.581 319.823 194.483 319.029 198.37Z" fill="#4062DA"/>
<path d="M174.702 365.125L159.958 349.189L158.867 350.408L172.724 366.324L174.702 365.125Z" fill="#292D34"/>
<path d="M346.445 188.97C348.064 189.005 349.405 187.721 349.44 186.102C349.475 184.483 348.19 183.142 346.571 183.107C344.952 183.072 343.611 184.357 343.577 185.976C343.542 187.595 344.826 188.935 346.445 188.97Z" fill="#F1F1F1"/>
<path d="M351.316 193.999C352.935 194.034 354.276 192.75 354.31 191.131C354.345 189.512 353.061 188.171 351.442 188.136C349.823 188.101 348.482 189.386 348.447 191.005C348.412 192.624 349.697 193.965 351.316 193.999Z" fill="#F1F1F1"/>
<path d="M338.218 193.346C339.837 193.381 341.177 192.097 341.212 190.478C341.247 188.859 339.962 187.518 338.343 187.483C336.724 187.449 335.384 188.733 335.349 190.352C335.314 191.971 336.598 193.312 338.218 193.346Z" fill="#F1F1F1"/>
<path d="M345.381 201.037C347 201.072 348.34 199.787 348.375 198.168C348.41 196.549 347.126 195.209 345.507 195.174C343.888 195.139 342.547 196.423 342.512 198.042C342.477 199.661 343.762 201.002 345.381 201.037Z" fill="#F1F1F1"/>
<path d="M330.495 197.873C332.114 197.908 333.454 196.624 333.489 195.004C333.524 193.385 332.24 192.045 330.621 192.01C329.002 191.975 327.661 193.26 327.626 194.879C327.591 196.498 328.876 197.838 330.495 197.873Z" fill="#F1F1F1"/>
<path d="M341.122 208.49C342.741 208.524 344.081 207.24 344.116 205.621C344.151 204.002 342.867 202.661 341.248 202.626C339.629 202.592 338.288 203.876 338.253 205.495C338.218 207.114 339.503 208.455 341.122 208.49Z" fill="#F1F1F1"/>
<path d="M275.293 239.479C281.804 236.455 289.522 239.224 292.639 245.662L292.732 245.858L317.898 300.056C320.953 306.634 318.096 314.442 311.519 317.496C305.007 320.52 297.289 317.751 294.172 311.313L294.079 311.117L268.913 256.919C265.859 250.341 268.715 242.533 275.293 239.479Z" fill="#F9D2C6"/>
<path d="M124.433 307.466L184.574 307.633C191.826 307.653 197.689 313.548 197.669 320.8C197.649 327.98 191.871 333.798 184.718 333.894L184.501 333.895L124.36 333.728C117.109 333.708 111.246 327.813 111.266 320.561C111.286 313.381 117.064 307.564 124.216 307.467L124.433 307.466Z" fill="#F9D2C6"/>
<rect x="105.025" y="341.128" width="38.9843" height="78.2972" rx="19.4921" transform="rotate(-89.3957 105.025 341.128)" fill="#070317"/>
<rect x="263.154" y="259.594" width="38.2465" height="78.2972" rx="19.1232" transform="rotate(-24.5251 263.154 259.594)" fill="#070317"/>
<path d="M208.855 303.738L314.763 206.976L326.567 219.299L223.576 320.738L208.855 303.738Z" fill="#63503C"/>
<path d="M328.915 195.084L329.158 195.342L162.132 352.912L161.889 352.654L328.915 195.084Z" fill="black"/>
<path d="M339.678 189.813L339.92 190.072L163.856 355.257L163.614 354.998L339.678 189.813Z" fill="black"/>
<path d="M348.525 185.323L348.768 185.581L166.897 356.676L166.654 356.417L348.525 185.323Z" fill="black"/>
<path d="M349.933 187.792L350.176 188.051L169.027 358.628L168.784 358.37L349.933 187.792Z" fill="black"/>
<path d="M339.52 205.428L339.763 205.687L172.019 363.596L171.776 363.338L339.52 205.428Z" fill="black"/>
<path d="M345.758 195.497L346.001 195.755L169.737 362L169.493 361.742L345.758 195.497Z" fill="black"/>
<path d="M305.989 305.586L280.823 251.388" stroke="#F9D2C6" stroke-width="74" stroke-linecap="round"/>
<rect x="263.154" y="259.594" width="38.2465" height="78.2972" rx="19.1232" transform="rotate(-24.5251 263.154 259.594)" fill="#070317"/>
<rect x="181.608" y="207.745" width="25.5722" height="40.8123" rx="12.7861" fill="#F9D2C6"/>
<path d="M247.076 186.286C258.693 186.286 268.11 176.869 268.11 165.252C268.11 153.636 258.693 144.219 247.076 144.219C235.46 144.219 226.043 153.636 226.043 165.252C226.043 176.869 235.46 186.286 247.076 186.286Z" fill="#F9D2C6"/>
<path d="M148.062 187.35C136.445 187.35 127.029 177.933 127.029 166.317C127.029 154.701 136.445 145.284 148.062 145.284C159.678 145.284 169.095 154.701 169.095 166.317C169.095 177.933 159.678 187.35 148.062 187.35Z" fill="#F9D2C6"/>
<path d="M141.58 126.297C141.58 96.2113 165.969 71.8218 196.055 71.8218C226.141 71.8218 250.531 96.2113 250.531 126.297V152.027L250.808 157.072C251.211 164.415 250.305 171.771 248.133 178.797L243.799 192.818C239.514 206.678 229.209 218.023 215.875 223.737C203.334 229.113 188.973 229.045 176.531 223.446C164.094 217.85 154.571 207.299 150.273 194.356L144.741 177.694C142.647 171.389 141.58 164.788 141.58 158.144V152.027V126.297Z" fill="#FEE6DD"/>
<path d="M180.972 68.628C189.758 66.1813 190.443 61.7318 202.266 62.0625C218.668 62.5213 226.173 70.1167 229.948 76.2925C233.734 75.2153 239.422 77.499 245.208 81.0491C252.838 85.7309 255.676 94.0026 257.096 96.3093C260.12 101.225 260.807 109.267 259.962 118.373L259.935 118.667C259.225 126.049 257.274 138.66 255.677 145.994L255.499 145.917C254.492 145.49 252.619 144.796 251.951 144.929C251.063 145.107 251.773 155.931 249.289 155.931C246.805 155.931 249.289 135.17 247.515 132.153C245.74 129.137 246.982 121.329 237.4 116.538L236.048 115.864C230.838 113.24 225.422 109.868 224.153 95.4679C220.28 96.6416 214.689 94.0879 211.847 95.777C206.524 98.9408 207.766 107.843 193.748 111.037C182.392 113.625 169.616 111.747 161.985 116.183C156.546 119.346 155.965 128.053 149.947 132.021L149.742 132.153C143.655 135.979 143.363 145.94 143.02 148.675L142.999 148.833C142.644 151.317 143.531 154.689 141.934 154.689C140.374 154.689 140.507 148.933 140.514 147.177L140.515 147.059C140.515 146.349 138.563 148.478 136.433 148.833C134.304 149.188 132.884 138.719 135.191 127.007C136.597 119.869 122.77 99.8582 146.902 77.5002C158.122 67.1057 170.9 71.4326 180.972 68.628Z" fill="#45332B"/>
<mask id="mask1" mask-type="alpha" maskUnits="userSpaceOnUse" x="141" y="71" width="110" height="157">
<path fill-rule="evenodd" clip-rule="evenodd" d="M141.579 126.297C141.579 96.2113 165.968 71.8218 196.055 71.8218C226.141 71.8218 250.53 96.2113 250.53 126.297V152.027L250.807 157.072C251.21 164.415 250.305 171.771 248.132 178.797L243.798 192.818C239.513 206.678 229.209 218.023 215.874 223.737C203.333 229.113 188.973 229.045 176.53 223.446C164.093 217.85 154.57 207.299 150.273 194.356L144.74 177.694C142.646 171.389 141.579 164.788 141.579 158.144V152.027V126.297Z" fill="white"/>
</mask>
<g mask="url(#mask1)">
<path d="M175.293 226.554C173.147 225.358 155.597 216.085 158.258 206.325C160.92 196.565 174.761 213.955 181.681 219.456C188.601 224.957 189.845 221.763 196.055 221.763C202.265 221.763 204.927 224.276 208.476 220.52C212.024 216.765 229.564 197.801 232.253 205.261C237.754 220.521 217.88 225.88 209.54 228.328C198.538 231.557 182.621 230.635 175.293 226.554Z" fill="#CAC4C1" fill-opacity="0.64"/>
<path d="M239.883 210.939C252.427 210.939 262.596 200.77 262.596 188.226C262.596 175.682 252.427 165.513 239.883 165.513C227.339 165.513 217.17 175.682 217.17 188.226C217.17 200.77 227.339 210.939 239.883 210.939Z" fill="#FEDFD5"/>
<path d="M155.065 211.649C167.609 211.649 177.778 201.48 177.778 188.936C177.778 176.392 167.609 166.223 155.065 166.223C142.521 166.223 132.352 176.392 132.352 188.936C132.352 201.48 142.521 211.649 155.065 211.649Z" fill="#FEDFD5"/>
<path d="M167.923 155.474L167.91 155.462L168.017 155.545C168.067 155.582 168.123 155.623 168.186 155.667C168.511 155.896 168.898 156.132 169.335 156.354C170.637 157.016 172.048 157.389 173.499 157.347C174.93 157.305 176.134 156.956 177.138 156.408C177.492 156.215 177.787 156.015 178.019 155.827L178.122 155.74L178.162 155.704L178.118 155.752C179.589 154.175 182.059 154.09 183.635 155.561C185.211 157.032 185.297 159.502 183.826 161.078C183.624 161.295 183.328 161.573 182.937 161.891C182.348 162.368 181.663 162.834 180.878 163.262C178.833 164.378 176.438 165.072 173.727 165.151C170.853 165.235 168.189 164.53 165.798 163.315C165.013 162.916 164.309 162.487 163.69 162.05L163.482 161.902C163.185 161.685 162.953 161.499 162.79 161.356C161.165 159.939 160.998 157.473 162.415 155.848C163.833 154.224 166.299 154.056 167.923 155.474Z" fill="#4E372B"/>
<path d="M214.059 155.474L214.046 155.462L214.153 155.545C214.202 155.582 214.258 155.623 214.321 155.667C214.647 155.896 215.034 156.132 215.471 156.354C216.773 157.016 218.183 157.389 219.634 157.347C221.065 157.305 222.27 156.956 223.274 156.408C223.628 156.215 223.922 156.015 224.154 155.827L224.258 155.74L224.298 155.704L224.253 155.752C225.724 154.175 228.194 154.09 229.771 155.561C231.347 157.032 231.432 159.502 229.961 161.078C229.76 161.295 229.464 161.573 229.073 161.891C228.484 162.368 227.798 162.834 227.014 163.262C224.969 164.378 222.573 165.072 219.862 165.151C216.989 165.235 214.325 164.53 211.934 163.315C211.149 162.916 210.445 162.487 209.826 162.05L209.618 161.902C209.321 161.685 209.089 161.499 208.925 161.356C207.301 159.939 207.133 157.473 208.551 155.848C209.968 154.224 212.434 154.056 214.059 155.474Z" fill="#4E372B"/>
<path d="M193.075 157.265L198.324 160.24L198.038 160.749C195.589 165.154 193.835 169.443 193.455 172.844L193.431 173.08C193.073 176.807 194.378 178.384 198.958 178.447L199.249 178.449V184.482C190.597 184.482 186.631 179.598 187.46 172.175C187.96 167.697 190.025 162.696 192.914 157.551L193.075 157.265Z" fill="#EBBAAA"/>
<path d="M163.323 135.445L187.101 139.16C187.965 139.295 188.602 140.039 188.602 140.913V144.93C188.602 146.038 187.598 146.875 186.508 146.676L165.82 142.896C165.516 142.84 165.203 142.865 164.912 142.968L157.073 145.728C155.919 146.134 154.709 145.278 154.709 144.054V141.072C154.709 140.444 155.041 139.863 155.582 139.544L162.147 135.67C162.501 135.462 162.917 135.382 163.323 135.445Z" fill="#1B1A1A" fill-opacity="0.92"/>
<path d="M232.107 135.444L208.561 139.065C207.695 139.198 207.056 139.943 207.056 140.819V144.935C207.056 146.041 208.057 146.878 209.146 146.681L229.593 142.99C229.898 142.935 230.211 142.961 230.502 143.064L238.404 145.865C239.559 146.274 240.771 145.418 240.771 144.192V141.129C240.771 140.503 240.441 139.923 239.903 139.603L233.283 135.672C232.929 135.462 232.513 135.381 232.107 135.444Z" fill="#1B1A1A" fill-opacity="0.92"/>
<path d="M187.337 60.4578C192.522 59.9673 200.082 61.7335 209.301 65.1789C216.127 67.7297 223.57 71.1245 229.323 74.159L229.704 74.3608L227.705 78.1211C222.06 75.1198 214.604 71.7072 207.81 69.1681L207.236 68.9549C198.847 65.863 192 64.2943 187.738 64.6976C182.163 65.2249 177.438 67.6129 171.22 72.3572L170.786 72.6917C169.841 73.4293 166.218 76.2843 165.137 77.0865C163.001 78.6706 161.273 79.7433 159.587 80.4498L159.413 80.5216L157.815 76.574C159.066 76.0674 160.456 75.2298 162.217 73.9476L162.6 73.666C163.713 72.8402 167.845 69.5793 168.373 69.1737L168.902 68.7696C175.574 63.7145 180.877 61.0689 187.337 60.4578Z" fill="#382922"/>
<path d="M145.635 118.569C147.947 112.788 160.537 108.625 169.132 109.764L169.391 109.8L168.775 114.014C161.895 113.007 151.026 116.557 149.589 120.15C148.883 121.916 147.705 123.797 146.1 125.833C144.854 127.415 143.373 129.062 141.621 130.852L141.155 131.324C139.381 133.1 134.698 137.556 134.075 138.213C133.19 139.148 133.06 140.096 133.571 141.263C134.108 142.492 135.329 143.793 136.871 144.781L137.021 144.875L134.78 148.496C132.481 147.073 130.602 145.103 129.669 142.97C128.495 140.288 128.877 137.508 130.983 135.284L131.141 135.123C132.265 133.988 136.894 129.581 138.324 128.131C140.09 126.34 141.557 124.718 142.756 123.197C144.129 121.454 145.103 119.899 145.635 118.569Z" fill="#382922"/>
<path d="M205.187 75.932C212.905 75.1659 222.013 75.3603 229.528 76.1996L230.015 76.2553L229.523 80.4854C222.202 79.6325 213.166 79.4196 205.607 80.1699L205.046 80.2276C195.928 81.1989 189.631 83.514 187.369 86.9854C183.828 92.4213 177.638 96.4317 169.364 99.4858C166.163 100.667 162.824 101.646 159.077 102.563L158.317 102.747C156.436 103.191 151.869 104.205 151.159 104.388L148.644 105.039C147.215 105.417 146.566 105.611 145.489 105.963C139.513 107.916 136.422 110.413 136.253 114.133L136.116 117.255C135.932 121.208 135.751 123.206 135.332 125.172L135.286 125.386C134.6 128.472 133.338 130.627 131.162 131.824L131.033 131.893L129.057 128.121L129.168 128.06C130.88 127.069 131.505 124.406 131.867 116.925L131.999 113.94C132.148 110.663 133.664 107.974 136.276 105.864C138.246 104.272 140.749 103.055 143.88 102.01L144.662 101.754C145.764 101.402 146.555 101.18 148.496 100.676L150.195 100.239C151.225 99.9847 155.715 98.9878 157.417 98.5834L157.588 98.5424C161.386 97.6267 164.726 96.6585 167.889 95.4906C175.289 92.7593 180.72 89.2666 183.688 84.8317L183.801 84.6607C187.04 79.6896 194.566 76.9862 205.187 75.932Z" fill="#382922"/>
<path d="M192.51 70.0355C201.969 61.6279 213.026 57.4412 220.688 60.805C223.766 62.1562 226.46 64.7801 228.76 68.2618C230.426 70.7832 231.806 73.6714 232.602 76.0522L232.683 76.2966L228.63 77.604C226.926 72.3224 223.085 66.5085 218.976 64.7044C213.291 62.2086 203.879 65.726 195.591 72.997L195.34 73.2184L192.51 70.0355Z" fill="#382922"/>
<path d="M222.469 93.7266L226.423 95.3083C225.812 96.8353 225.218 99.2502 224.953 101.409C224.812 102.558 224.769 103.586 224.829 104.399C224.878 105.064 224.994 105.508 225.084 105.658L225.096 105.675L225.107 105.68L225.157 105.708C225.266 105.768 225.429 105.83 225.647 105.889L225.732 105.911C226.223 106.035 226.8 106.116 227.881 106.219L229.571 106.377C231.174 106.534 231.984 106.654 233.093 106.905L233.192 106.927C236.059 107.586 238.412 108.81 240.288 110.887L240.422 111.037L237.217 113.842C235.968 112.415 234.362 111.566 232.238 111.078L231.993 111.023C231.003 110.807 230.198 110.709 228.237 110.528L227.427 110.454C226.159 110.332 225.441 110.229 224.692 110.041C223.38 109.71 222.367 109.157 221.664 108.198C219.75 105.588 220.538 98.769 222.345 94.042L222.469 93.7266Z" fill="#382922"/>
<path d="M181.436 188.42L183.497 190.481C182.559 191.419 181.525 192.821 180.898 193.864L180.811 194.01L178.293 192.541C178.993 191.342 180.149 189.747 181.282 188.577L181.436 188.42Z" fill="#CAC3C1" fill-opacity="0.48"/>
<path d="M186.394 188.952L188.455 191.013C188.181 191.287 187.918 191.593 187.662 191.929C187.394 192.281 187.144 192.654 186.892 193.066L186.718 193.358L186.134 194.384L183.617 192.916L184.148 191.98C184.19 191.907 184.228 191.842 184.258 191.79C184.606 191.203 184.955 190.674 185.342 190.165C185.619 189.801 185.907 189.459 186.21 189.141L186.394 188.952Z" fill="#CAC3C1" fill-opacity="0.48"/>
<path d="M190.236 189.344L193.001 190.266C192.571 191.555 192.385 192.741 192.367 194.188L192.366 194.419H189.451C189.451 192.649 189.659 191.155 190.162 189.571L190.236 189.344Z" fill="#CAC3C1" fill-opacity="0.48"/>
<path d="M194.065 189.805H196.979L196.98 194.242H194.065L194.065 189.805Z" fill="#CAC3C1" fill-opacity="0.48"/>
<path d="M200.765 189.231C201.635 191.259 202.094 192.736 202.124 194.261L202.125 194.419H199.211C199.211 193.392 198.861 192.212 198.163 190.558L198.086 190.379L200.765 189.231Z" fill="#CAC3C1" fill-opacity="0.48"/>
<path d="M212.751 192.916L210.233 194.384L209.738 193.465C209.439 192.918 209.075 192.262 208.849 191.888L208.814 191.832C208.39 191.141 207.988 190.589 207.624 190.206L207.547 190.126L209.608 188.065C210.144 188.601 210.66 189.289 211.185 190.124L211.359 190.407C211.843 191.212 212.757 192.914 212.757 192.925L212.751 192.916Z" fill="#CAC3C1" fill-opacity="0.48"/>
<path d="M204.476 188.794C205.139 189.456 205.688 190.141 206.176 190.876C206.324 191.099 206.461 191.318 206.602 191.553L206.779 191.857L207.073 192.369L204.555 193.838L204.19 193.202C204.038 192.941 203.898 192.715 203.748 192.488C203.406 191.972 203.029 191.493 202.585 191.028L202.415 190.855L204.476 188.794Z" fill="#CAC3C1" fill-opacity="0.48"/>
<path fill-rule="evenodd" clip-rule="evenodd" d="M183.132 193.354C185.502 194.938 189.408 196.503 195.814 196.503C201.823 196.503 205.768 195.208 208.295 193.467C208.529 194.441 208.653 195.457 208.653 196.503C208.653 203.657 202.975 209.456 195.7 209.456C188.424 209.456 182.746 203.657 182.746 196.503C182.746 195.417 182.88 194.362 183.132 193.354Z" fill="white"/>
</g>
</g>
</svg>
