<svg width="1440" height="1024" viewBox="0 0 1440 1024" fill="none" xmlns="http://www.w3.org/2000/svg">
<rect width="1440" height="1024" fill="white"/>
<rect x="1271" y="195.81" width="9.53" height="9.53235" rx="4.765" transform="rotate(-33.8927 1271 195.81)" fill="#1DA1F2"/>
<rect x="95" y="493.026" width="111.23" height="9.53235" rx="4.76617" transform="rotate(-33.8927 95 493.026)" fill="#1DA1F2"/>
<rect x="1054" y="509.026" width="9.53" height="9.53235" rx="4.765" transform="rotate(-33.8927 1054 509.026)" fill="#F2E91D"/>
<rect x="510" y="828.016" width="61" height="9.53235" rx="4.76617" transform="rotate(-33.8927 510 828.016)" fill="#CE5BCA"/>
<rect y="90" width="1440" height="84" fill="white"/>
<path d="M762.658 260.766C761.19 258.581 761.771 255.62 763.956 254.152L788.509 237.658C790.694 236.19 793.655 236.771 795.123 238.956C796.591 241.141 796.01 244.103 793.825 245.57L769.272 262.065C767.087 263.533 764.126 262.951 762.658 260.766Z" fill="#F2E91D"/>
<g opacity="0.1">
<path d="M987 590C987 590 1015 486 959 379" stroke="#E0E0E0" stroke-width="10" stroke-linecap="round" stroke-linejoin="round"/>
<path d="M603.1 556.14C612.98 515.78 615.93 431.64 485.44 395.92" stroke="#E0E0E0" stroke-width="10" stroke-linecap="round" stroke-linejoin="round"/>
<path d="M1177 584H366V1024H1177V584Z" fill="url(#paint0_linear)"/>
<path d="M1171 590H373V1012.5H1171V590Z" fill="white"/>
<path d="M528 696C549.539 696 567 678.539 567 657C567 635.461 549.539 618 528 618C506.461 618 489 635.461 489 657C489 678.539 506.461 696 528 696Z" fill="url(#paint1_linear)"/>
<path d="M528 692C547.33 692 563 676.33 563 657C563 637.67 547.33 622 528 622C508.67 622 493 637.67 493 657C493 676.33 508.67 692 528 692Z" fill="#1DA1F2"/>
<path d="M805 644H608V664H805V644Z" fill="#BDBDBD"/>
<path d="M1019.5 773.5H527.5V793.5H1019.5V773.5Z" fill="#E0E0E0"/>
<path d="M1019.5 729.5H527.5V749.5H1019.5V729.5Z" fill="#E0E0E0"/>
<path d="M1019.5 817.5H527.5V837.5H1019.5V817.5Z" fill="#E0E0E0"/>
<path d="M1019.5 861.5H527.5V881.5H1019.5V861.5Z" fill="#E0E0E0"/>
<path d="M1019.5 905.5H527.5V925.5H1019.5V905.5Z" fill="#E0E0E0"/>
<path d="M1019.5 949.5H527.5V969.5H1019.5V949.5Z" fill="#E0E0E0"/>
<path d="M450.59 560.75C451.35 539.13 448.71 506.81 429.81 485.34" stroke="#BDBDBD" stroke-width="10" stroke-linecap="round" stroke-linejoin="round"/>
<path d="M902.59 569.75C903.35 548.13 900.71 515.81 881.81 494.34" stroke="#E0E0E0" stroke-width="10" stroke-linecap="round" stroke-linejoin="round"/>
<path d="M1090.41 560.75C1089.65 539.13 1092.29 506.81 1111.19 485.34" stroke="#BDBDBD" stroke-width="10" stroke-linecap="round" stroke-linejoin="round"/>
<path opacity="0.7" d="M406 342.78H295V403.21H406V342.78Z" fill="#1DA1F2"/>
<path opacity="0.7" d="M1014 301.78H903V362.21H1014V301.78Z" fill="#1DA1F2"/>
<path opacity="0.7" d="M919 409.78H808V470.21H919V409.78Z" fill="#1DA1F2"/>
<path d="M558.78 355.58H378V453.99H558.78V355.58Z" fill="#1DA1F2"/>
<path d="M1225 360.58H1044.22V458.99H1225V360.58Z" fill="#1DA1F2"/>
<path d="M815.49 228H634.71V326.41H815.49V228Z" fill="#1DA1F2"/>
<path d="M717.82 560.21C723.95 538.85 727.94 504.72 708.5 469.49C684.5 425.98 706.08 383.59 718.35 365.13" stroke="#BDBDBD" stroke-width="10" stroke-linecap="round" stroke-linejoin="round"/>
</g>
<defs>
<linearGradient id="paint0_linear" x1="771.5" y1="1024" x2="771.5" y2="584" gradientUnits="userSpaceOnUse">
<stop stop-color="#808080" stop-opacity="0.25"/>
<stop offset="0.54" stop-color="#808080" stop-opacity="0.12"/>
<stop offset="1" stop-color="#808080" stop-opacity="0.1"/>
</linearGradient>
<linearGradient id="paint1_linear" x1="528" y1="696" x2="528" y2="618" gradientUnits="userSpaceOnUse">
<stop stop-color="#B3B3B3" stop-opacity="0.25"/>
<stop offset="0.54" stop-color="#B3B3B3" stop-opacity="0.1"/>
<stop offset="1" stop-color="#B3B3B3" stop-opacity="0.05"/>
</linearGradient>
</defs>
</svg>
