<svg width="45" height="45" viewBox="0 0 45 45" fill="none" xmlns="http://www.w3.org/2000/svg">
<path d="M22.5 44.75C22.0125 44.75 21.5688 44.4775 21.3487 44.0438L19.0988 39.6012L15.3188 42.8462C15.08 43.0475 14.7812 43.155 14.4788 43.155C14.3125 43.155 14.145 43.1237 13.9862 43.0575C13.5375 42.8725 13.2288 42.4487 13.1938 41.9663L12.8138 36.9963L8.07875 38.5475C7.9475 38.59 7.8125 38.6112 7.6775 38.6112C7.34 38.6112 7.0125 38.4787 6.765 38.2325C6.4225 37.8913 6.30125 37.3812 6.4525 36.9187L8.0025 32.1837L3.0375 31.8075C2.55375 31.7687 2.13 31.4637 1.94375 31.015C1.75875 30.5637 1.84 30.05 2.15625 29.6812L5.39875 25.9012L0.95625 23.6512C0.5225 23.4312 0.25 22.985 0.25 22.5C0.25 22.015 0.5225 21.5688 0.95625 21.3487L5.39875 19.0988L2.15625 15.3188C1.84125 14.95 1.75875 14.4338 1.94375 13.9862C2.13 13.5375 2.5525 13.2288 3.0375 13.1938L8.0025 12.8138L6.4525 8.07875C6.30125 7.61625 6.4225 7.11 6.765 6.765C7.0125 6.52 7.34 6.38875 7.6775 6.38875C7.8125 6.38875 7.9475 6.41 8.07875 6.4525L12.8138 8.0025L13.1938 3.0375C13.23 2.5525 13.5375 2.13 13.9862 1.94375C14.145 1.87875 14.3125 1.84625 14.4788 1.84625C14.7812 1.84625 15.08 1.95125 15.3188 2.15625L19.0988 5.39875L21.3487 0.95625C21.5688 0.5225 22.0125 0.25 22.5 0.25C22.985 0.25 23.4312 0.5225 23.65 0.95625L25.9025 5.39875L29.6825 2.15625C29.92 1.95125 30.2212 1.84625 30.5212 1.84625C30.69 1.84625 30.8562 1.87875 31.0162 1.94375C31.4637 2.13 31.77 2.5525 31.8088 3.0375L32.1875 8.0025L36.9187 6.4525C37.05 6.40875 37.1875 6.38875 37.32 6.38875C37.6575 6.38875 37.9875 6.52 38.2312 6.765C38.5762 7.11 38.6975 7.6175 38.5462 8.07875L36.995 12.8138L41.965 13.1938C42.4475 13.23 42.8713 13.5375 43.0562 13.9862C43.2412 14.4338 43.1613 14.95 42.845 15.3188L39.6 19.0988L44.0425 21.3487C44.4775 21.57 44.75 22.015 44.75 22.5C44.75 22.985 44.4775 23.43 44.0438 23.6512L39.6012 25.9012L42.8462 29.6812C43.1625 30.05 43.2425 30.5637 43.0575 31.015C42.8725 31.4625 42.4487 31.7687 41.9625 31.8075L36.9963 32.1837L38.5475 36.9187C38.6987 37.3825 38.5775 37.89 38.2325 38.2325C37.9888 38.4787 37.6575 38.6112 37.3213 38.6112C37.1888 38.6112 37.0512 38.59 36.92 38.5475L32.1887 36.9963L31.81 41.9625C31.7712 42.4487 31.4662 42.8725 31.0175 43.0575C30.8562 43.1237 30.69 43.155 30.5225 43.155C30.2225 43.155 29.9225 43.0475 29.6837 42.8462L25.9037 39.6012L23.6512 44.0438C23.4312 44.4775 22.985 44.75 22.5 44.75Z" fill="#F4900C"/>
<path d="M38.75 22.5C38.75 31.4737 31.4737 38.75 22.5 38.75C13.5262 38.75 6.25 31.475 6.25 22.5C6.25 13.525 13.5262 6.25 22.5 6.25C31.4737 6.25 38.75 13.5262 38.75 22.5Z" fill="#FFCC4D"/>
<path d="M22.5 29.3388C14.7225 29.3388 12.5 26.4288 12.5 27.8038C12.5 29.1813 16.945 32.7788 22.5 32.7788C28.055 32.7788 32.5 29.18 32.5 27.8038C32.5 26.4288 30.2788 29.3388 22.5 29.3388ZM32.5 18.3338C32.5 20.175 31.0075 21.6675 29.1663 21.6675C27.3263 21.6675 25.8338 20.175 25.8338 18.3338C25.8338 16.4925 27.3263 15 29.1663 15C31.0075 15 32.5 16.4912 32.5 18.3338ZM19.1663 18.3338C19.1663 20.175 17.6725 21.6675 15.8325 21.6675C13.9925 21.6675 12.4988 20.175 12.4988 18.3338C12.4988 16.4925 13.9938 15 15.8338 15C17.6738 15 19.1663 16.4912 19.1663 18.3338Z" fill="#F4900C"/>
</svg>
