<svg width="227" height="227" viewBox="0 0 227 227" fill="none" xmlns="http://www.w3.org/2000/svg">
<mask id="mask0" mask-type="alpha" maskUnits="userSpaceOnUse" x="0" y="0" width="227" height="227">
<circle cx="113.5" cy="113.5" r="113.5" fill="#3F3D56"/>
</mask>
<g mask="url(#mask0)">
<rect width="227" height="227" fill="#1DA1F2"/>
<path d="M124.116 184.563C125.446 181.084 129.345 179.341 132.825 180.671C136.27 181.988 138.012 185.823 136.756 189.276L136.717 189.38L84.0041 327.285C82.674 330.765 78.7748 332.507 75.295 331.177C71.85 329.86 70.1076 326.026 71.3637 322.573L71.4027 322.468L124.116 184.563Z" fill="#EBBAAA"/>
<path d="M88.3548 191.659C91.9389 190.789 95.549 192.959 96.473 196.515L96.5002 196.624L127.229 323.286C128.107 326.907 125.884 330.553 122.264 331.432C118.68 332.301 115.07 330.131 114.146 326.575L114.118 326.467L83.3899 199.804C82.5117 196.184 84.7345 192.537 88.3548 191.659Z" fill="#EBBAAA"/>
<path d="M109.056 199.838L139.91 202.961L93.6919 317.04C93.6919 317.04 86.0722 316.29 81.7003 314.916C77.3284 313.542 70.3333 308.795 70.3333 308.795L109.056 199.838Z" fill="black"/>
<path d="M72.8445 199.18L108.807 205.958L131.291 322.753C131.291 322.753 128.043 325.076 120.299 326.251C112.554 327.422 106.808 326.251 106.808 326.251L72.8445 199.18Z" fill="#252424"/>
<path d="M114.053 221.231C108.957 212.937 92.3599 206.034 84.6985 203.619H116.551C117.842 212.946 119.149 229.526 114.053 221.231Z" fill="black"/>
<path d="M80.5054 196.206L140.784 201.53L139.34 208.633L79.8696 203.31L80.5054 196.206Z" fill="black"/>
<path fill-rule="evenodd" clip-rule="evenodd" d="M112.247 197.672L118.231 198.06C118.919 198.104 119.441 198.699 119.396 199.387L118.831 208.113C118.787 208.801 118.192 209.323 117.504 209.278L111.521 208.891C110.832 208.846 110.31 208.252 110.355 207.564L110.92 198.838C110.965 198.15 111.559 197.628 112.247 197.672ZM116.419 206.705L116.822 200.472L113.332 200.246L112.929 206.479L116.419 206.705Z" fill="#252424"/>
<path d="M13.0604 91.9668C16.2732 87.9995 22.0938 87.3878 26.0611 90.6006C46.1453 106.865 57.0529 114.488 80.9903 128.973C85.3579 131.616 86.756 137.3 84.113 141.667C81.4701 146.035 75.7868 147.433 71.4192 144.79C46.7743 129.877 35.177 121.772 14.4266 104.968C10.4592 101.755 9.84758 95.9341 13.0604 91.9668Z" fill="#FBD2C5"/>
<path d="M184.614 49.4252C187.038 44.9325 192.645 43.2557 197.138 45.68C201.631 48.1043 203.307 53.7117 200.883 58.2044C186.841 84.227 170.741 108.518 151.625 132.413C148.436 136.4 142.619 137.046 138.633 133.857C134.646 130.668 134 124.851 137.189 120.864C155.614 97.8329 171.1 74.4686 184.614 49.4252Z" fill="#FBD2C5"/>
<path d="M130.672 127.354C125.816 134.228 127.453 143.736 134.327 148.592L135.368 149.426C142.242 154.282 151.752 152.644 156.608 145.77L204.319 72.3594L178.383 53.9397L130.672 127.354Z" fill="black"/>
<path d="M91.643 166.952C98.3985 171.971 107.943 170.564 112.963 163.808L113.822 162.788C118.842 156.032 117.432 146.486 110.677 141.466L38.4334 92.0054L19.3962 117.491L91.643 166.952Z" fill="black"/>
<path d="M180.382 202.337C182.78 196.941 183.588 193.968 182.755 191.345C168.865 147.576 150.153 136.883 142.533 137.008L85.948 152.997L42.978 224.072C42.978 224.072 74.7058 222.572 84.1992 234.563L126.545 223.447C134.789 228.069 142.034 238.312 155.399 236.313C168.765 234.315 177.384 209.083 180.382 202.337Z" fill="black"/>
<path d="M78.406 133.862C78.5909 125.733 84.6951 119.17 92.318 118.904L110.115 118.283C111.565 118.235 113.017 118.315 114.453 118.527L131.825 121.088C139.489 122.218 142.43 129.726 141.659 137.932C141.659 137.932 144.657 159.169 144.657 172.924C144.657 186.679 140.021 202.7 140.021 202.7C139.91 203.21 139.704 203.481 139.302 203.459L74.8572 199.769C74.4712 199.747 74.1767 199.389 74.2087 198.977L77.6203 168.39L78.406 133.862Z" fill="#F3F6F9"/>
<path d="M130.167 142.753C119.175 137.856 118.758 128.471 119.924 124.39L136.163 110.65C138.37 112.024 145.856 118.744 158.147 134.633C170.024 149.986 179.514 178.938 183.146 192.819C183.361 193.492 183.473 193.95 183.505 194.217C183.392 193.77 183.273 193.304 183.146 192.819C182.255 190.033 179.586 183.566 173.387 171.732C163.769 153.37 143.907 148.873 130.167 142.753Z" fill="#252424"/>
<path d="M95.4415 138.506L107.433 126.889L95.4415 115.771L77.704 121.143C77.704 121.143 68.7102 130.261 67.4611 149.123C66.212 167.985 32.4856 218.45 40.8547 223.321C49.2239 228.193 79.2029 213.828 84.824 204.335C90.445 194.841 95.4415 138.506 95.4415 138.506Z" fill="#252424"/>
<path fill-rule="evenodd" clip-rule="evenodd" d="M107.433 126.922L95.4412 138.539C95.4412 138.539 90.7483 191.452 85.3421 203.359C84.8002 203.597 84.33 203.651 83.9493 203.494C79.7022 201.745 76.7043 136.791 76.7043 136.791L91.6939 135.167L88.1963 125.548L99.6878 119.742L107.433 126.922Z" fill="black"/>
<path d="M42.978 135.417L64.2132 105.562L76.2048 113.307L55.0946 144.41L42.978 135.417Z" fill="white"/>
<rect x="102.936" y="108.277" width="18.9867" height="28.7299" rx="9.49336" fill="#EBBAAA"/>
<path d="M142.533 101.066C150.467 101.066 156.898 94.634 156.898 86.7006C156.898 78.7671 150.467 72.3356 142.533 72.3356C134.6 72.3356 128.168 78.7671 128.168 86.7006C128.168 94.634 134.6 101.066 142.533 101.066Z" fill="#EBBAAA"/>
<path d="M82.3254 101.066C74.392 101.066 67.9604 94.634 67.9604 86.7006C67.9604 78.7671 74.392 72.3356 82.3254 72.3356C90.2589 72.3356 96.6904 78.7671 96.6904 86.7006C96.6904 94.634 90.2589 101.066 82.3254 101.066Z" fill="#EBBAAA"/>
<path d="M76.4374 65.702C74.1133 44.578 90.6537 26.1179 111.905 26.1179C133.174 26.1179 149.72 44.6065 147.368 65.7447L143.563 99.9463C141.768 116.087 128.124 128.296 111.884 128.296C95.6295 128.296 81.9785 116.065 80.201 99.9078L76.4374 65.702Z" fill="#F6DDD6"/>
<path d="M149.577 50.997C149.739 49.4753 148.602 48.127 147.077 48.0273C145.493 47.9242 144.166 49.2045 144.213 50.7899L145.249 77.6469C145.263 78.0958 145.365 78.4593 145.811 78.4883C146.277 78.5188 146.433 78.1773 146.483 77.7148L149.577 50.997Z" fill="#393939"/>
<path d="M127.822 80.33C129.453 80.33 130.779 81.6325 130.819 83.254L130.82 83.3279V86.5756C130.82 88.2313 129.477 89.5736 127.822 89.5736C126.191 89.5736 124.864 88.2711 124.825 86.6496L124.824 86.5756V83.3279C124.824 81.6722 126.166 80.33 127.822 80.33Z" fill="black"/>
<path d="M96.5936 80.33C98.2246 80.33 99.5514 81.6325 99.5906 83.254L99.5915 83.3279V86.5756C99.5915 88.2313 98.2493 89.5736 96.5936 89.5736C94.9626 89.5736 93.6358 88.2711 93.5966 86.6496L93.5957 86.5756V83.3279C93.5957 81.6722 94.9379 80.33 96.5936 80.33Z" fill="black"/>
<path d="M136.31 76.5204C137.961 76.3997 139.398 77.6406 139.519 79.2919C139.637 80.9185 138.435 82.3367 136.821 82.494L136.747 82.5003L122.893 83.5126C121.241 83.6332 119.805 82.3924 119.684 80.7411C119.565 79.1144 120.768 77.6963 122.382 77.539L122.456 77.5327L136.31 76.5204Z" fill="#393939"/>
<path d="M84.4558 79.3388C84.567 77.7116 85.9568 76.4766 87.5772 76.548L87.651 76.5521L101.51 77.4987C103.162 77.6115 104.41 79.0421 104.297 80.6939C104.186 82.3211 102.796 83.5561 101.175 83.4847L101.102 83.4806L87.2425 82.534C85.5906 82.4212 84.343 80.9906 84.4558 79.3388Z" fill="#393939"/>
<path d="M110.544 86.7777L114.239 88.8719C113.125 90.8363 112.491 92.9351 112.559 94.3595C112.608 95.388 112.865 95.6826 113.83 95.6939L113.89 95.6943V99.9413C110.493 99.9413 108.47 97.7749 108.317 94.5621C108.208 92.2778 109.034 89.4933 110.46 86.9283L110.544 86.7777Z" fill="#EBBAAA"/>
<path d="M146.406 75.8332C146.53 74.8339 147.03 73.5847 147.78 73.3349C148.529 73.0851 148.983 37.296 138.286 28.69C127.59 20.0842 101.988 16.5919 84.242 28.69C66.4954 40.7882 80.8264 65.7152 74.8496 72.5537C72.6708 75.0465 76.8679 75.9601 76.7058 77.3321L77.6454 69.8096C77.6454 69.8096 82.7036 60.35 86.5184 48.6067C89.5573 39.2526 108.641 44.8651 112.409 44.8651C116.177 44.8651 133.455 39.4956 136.476 48.6067C140.487 60.705 142.55 65.0127 144.657 68.4633C145.183 73.2859 146.17 77.7143 146.406 75.8332Z" fill="#393939"/>
<path d="M81.2392 25.2406C73.4566 33.2379 72.0701 55.5618 75.8886 65.7332C75.8886 71.4222 59.1394 70.3068 56.3815 78.9872C54.1359 86.0548 75.4829 83.3377 98.3342 78.9872C121.186 74.6368 175.681 56.5409 167.265 53.909C161.915 52.2357 157.233 52.6819 150.908 55.5618C150.908 43.0681 134.664 16 122.422 16C114.027 16 111.409 18.364 106.059 20.3719C100.708 22.3798 93.0047 13.1508 81.2392 25.2406Z" fill="black"/>
<path fill-rule="evenodd" clip-rule="evenodd" d="M153.568 43.147C152.855 41.9296 151.432 41.6246 148.997 43.0826C144.212 45.9481 126.294 48.3064 110.311 50.4104C96.1716 52.2716 83.5464 53.9335 82.8671 55.5703C81.4196 59.0579 84.0918 65.1332 85.539 65.9206C86.9863 66.7083 108.028 64.5481 116.934 63.558C125.841 62.5682 143.283 57.8205 151.001 55.5703C152.854 53.6312 154.6 47.9062 154.045 44.5793C153.895 44.1066 153.736 43.6289 153.568 43.147Z" fill="white"/>
<path d="M122.797 108.31H101.562C103.602 110.101 108.532 113.682 111.93 113.682C115.327 113.682 120.59 110.101 122.797 108.31Z" fill="white"/>
<path d="M129.792 105.562C133.31 105.562 136.162 102.71 136.162 99.1918C136.162 95.6735 133.31 92.8213 129.792 92.8213C126.274 92.8213 123.421 95.6735 123.421 99.1918C123.421 102.71 126.274 105.562 129.792 105.562Z" fill="#FBD2C5"/>
<path d="M95.3161 105.562C98.8345 105.562 101.687 102.71 101.687 99.1918C101.687 95.6735 98.8345 92.8213 95.3161 92.8213C91.7977 92.8213 88.9456 95.6735 88.9456 99.1918C88.9456 102.71 91.7977 105.562 95.3161 105.562Z" fill="#FBD2C5"/>
</g>
</svg>
