<svg width="340" height="81" viewBox="0 0 340 81" fill="none" xmlns="http://www.w3.org/2000/svg">
<path d="M41.7489 81C33.8402 81 26.6919 79.2556 20.3041 75.7668C13.9923 72.2781 9.01138 67.4621 5.3612 61.3188C1.78707 55.0997 0 48.1601 0 40.5C0 32.8399 1.78707 25.9382 5.3612 19.7949C9.01138 13.5758 14.0304 8.72191 20.4182 5.23315C26.806 1.74438 33.9543 0 41.863 0C47.7945 0 53.2698 0.985956 58.2888 2.95787C63.3078 4.92977 67.5663 7.8118 71.0644 11.6039L65.7032 16.9508C59.4675 10.6559 51.5968 7.50842 42.0911 7.50842C35.7793 7.50842 30.0379 8.94944 24.8668 11.8315C19.6958 14.7135 15.6273 18.6573 12.6616 23.6629C9.77183 28.6685 8.32697 34.2809 8.32697 40.5C8.32697 46.7191 9.77183 52.3315 12.6616 57.3371C15.6273 62.3427 19.6958 66.2865 24.8668 69.1685C30.0379 72.0506 35.7793 73.4916 42.0911 73.4916C51.6728 73.4916 59.5435 70.3062 65.7032 63.9354L71.0644 69.2823C67.5663 73.0744 63.2697 75.9944 58.1747 78.0421C53.1557 80.014 47.6804 81 41.7489 81Z" fill="black"/>
<path d="M29.5277 40.3815H24.2972V59.9987C26.7037 62.1049 29.5522 63.7213 32.8428 64.8479C36.1333 65.9745 39.5957 66.5377 43.2301 66.5377C48.3869 66.5377 53.0281 65.4112 57.1535 63.158C61.279 60.9048 64.5204 57.7945 66.8778 53.827C69.2352 49.8105 70.4139 45.3286 70.4139 40.3815C70.4139 35.4343 69.2352 30.977 66.8778 27.0095C64.5204 22.993 61.279 19.8581 57.1535 17.605C53.0281 15.3518 48.3623 14.2252 43.1564 14.2252C39.2274 14.2252 35.6176 14.862 32.3271 16.1355C29.0365 17.3601 26.2617 19.1969 24.0025 21.646L27.3913 25.0992C31.4676 21.0827 36.649 19.0744 42.9354 19.0744C47.11 19.0744 50.8917 20.0051 54.2804 21.8664C57.6201 23.6787 60.2476 26.2258 62.163 29.5075C64.0784 32.7403 65.0361 36.365 65.0361 40.3815C65.0361 44.398 64.0784 48.0226 62.163 51.2554C60.2476 54.4882 57.6201 57.0353 54.2804 58.8966C50.9408 60.7579 47.1836 61.6886 43.0091 61.6886C37.7049 61.6886 33.2111 60.366 29.5277 57.721V40.3815Z" fill="black"/>
<path d="M121.877 61.8118C117.885 61.8118 114.272 60.9396 111.04 59.1952C107.847 57.4129 105.337 54.986 103.512 51.9143C101.687 48.8048 100.774 45.316 100.774 41.448C100.774 37.5801 101.687 34.1103 103.512 31.0386C105.337 27.9291 107.866 25.5021 111.098 23.7577C114.329 21.9754 117.942 21.0843 121.934 21.0843C125.052 21.0843 127.904 21.6152 130.489 22.677C133.075 23.7008 135.28 25.2367 137.105 27.2844L133.398 30.868C130.394 27.7205 126.649 26.1468 122.162 26.1468C119.196 26.1468 116.516 26.8104 114.12 28.1376C111.725 29.4649 109.843 31.3041 108.474 33.6552C107.143 35.9684 106.478 38.566 106.478 41.448C106.478 44.3301 107.143 46.9466 108.474 49.2978C109.843 51.611 111.725 53.4312 114.12 54.7584C116.516 56.0857 119.196 56.7493 122.162 56.7493C126.611 56.7493 130.356 55.1566 133.398 51.9712L137.105 55.5548C135.28 57.6025 133.056 59.1573 130.432 60.2191C127.847 61.2809 124.995 61.8118 121.877 61.8118Z" fill="black"/>
<path d="M155.061 30.9249C159.243 30.9249 162.437 31.9487 164.642 33.9965C166.886 36.0442 168.007 39.0969 168.007 43.1545V61.3567H162.817V57.375C161.905 58.7781 160.593 59.8588 158.882 60.6173C157.209 61.3378 155.213 61.698 152.893 61.698C149.509 61.698 146.791 60.8827 144.737 59.2521C142.722 57.6215 141.715 55.4789 141.715 52.8244C141.715 50.1699 142.684 48.0463 144.623 46.4536C146.562 44.823 149.642 44.0077 153.863 44.0077H162.532V42.927C162.532 40.5758 161.848 38.7746 160.479 37.5232C159.11 36.2718 157.095 35.6461 154.433 35.6461C152.646 35.6461 150.897 35.9494 149.186 36.5562C147.475 37.125 146.03 37.9024 144.851 38.8883L142.57 34.7928C144.129 33.5414 145.992 32.5934 148.159 31.9487C150.327 31.2662 152.627 30.9249 155.061 30.9249ZM153.806 57.4888C155.897 57.4888 157.703 57.0337 159.224 56.1236C160.745 55.1756 161.848 53.8483 162.532 52.1419V47.9326H154.091C149.452 47.9326 147.133 49.4874 147.133 52.5969C147.133 54.1138 147.722 55.3083 148.901 56.1805C150.08 57.0527 151.715 57.4888 153.806 57.4888Z" fill="black"/>
<path d="M194.166 30.9249C197.094 30.9249 199.718 31.5695 202.037 32.8588C204.356 34.1482 206.162 35.9494 207.455 38.2626C208.786 40.5758 209.451 43.2493 209.451 46.283C209.451 49.3167 208.786 52.0091 207.455 54.3602C206.162 56.6735 204.356 58.4747 202.037 59.764C199.718 61.0534 197.094 61.698 194.166 61.698C191.999 61.698 190.003 61.2809 188.178 60.4466C186.391 59.6124 184.87 58.3989 183.615 56.8062V72.3919H178.14V31.2093H183.387V35.9874C184.604 34.3188 186.143 33.0674 188.007 32.2331C189.87 31.361 191.923 30.9249 194.166 30.9249ZM193.71 56.9199C195.649 56.9199 197.379 56.4838 198.9 55.6117C200.459 54.7015 201.676 53.4501 202.55 51.8574C203.463 50.2268 203.919 48.3687 203.919 46.283C203.919 44.1973 203.463 42.3581 202.55 40.7654C201.676 39.1348 200.459 37.8834 198.9 37.0112C197.379 36.139 195.649 35.7029 193.71 35.7029C191.809 35.7029 190.079 36.158 188.52 37.0681C186.999 37.9403 185.782 39.1728 184.87 40.7654C183.995 42.3581 183.558 44.1973 183.558 46.283C183.558 48.3687 183.995 50.2268 184.87 51.8574C185.744 53.4501 186.961 54.7015 188.52 55.6117C190.079 56.4838 191.809 56.9199 193.71 56.9199Z" fill="black"/>
<path d="M260.793 41.2205H266.268V56.7493C264.291 58.3799 261.991 59.6313 259.367 60.5035C256.744 61.3757 254.006 61.8118 251.154 61.8118C247.124 61.8118 243.493 60.9396 240.261 59.1952C237.029 57.4129 234.481 54.986 232.618 51.9143C230.793 48.8048 229.881 45.316 229.881 41.448C229.881 37.5801 230.793 34.0913 232.618 30.9817C234.481 27.8722 237.029 25.4452 240.261 23.7008C243.531 21.9565 247.2 21.0843 251.268 21.0843C254.462 21.0843 257.352 21.6152 259.938 22.677C262.561 23.7008 264.786 25.2177 266.611 27.2275L263.074 30.7542C259.881 27.6826 256.021 26.1468 251.497 26.1468C248.455 26.1468 245.717 26.8104 243.284 28.1376C240.888 29.427 239.006 31.2472 237.637 33.5983C236.268 35.9115 235.584 38.5281 235.584 41.448C235.584 44.3301 236.268 46.9466 237.637 49.2978C239.006 51.611 240.888 53.4312 243.284 54.7584C245.717 56.0857 248.436 56.7493 251.44 56.7493C255.014 56.7493 258.132 55.8961 260.793 54.1896V41.2205Z" fill="black"/>
<path d="M303.709 46.4536C303.709 46.8708 303.671 47.4206 303.595 48.1032H279.07C279.413 50.7577 280.572 52.9003 282.549 54.5309C284.565 56.1236 287.055 56.9199 290.021 56.9199C293.633 56.9199 296.542 55.7065 298.747 53.2795L301.77 56.8062C300.401 58.3989 298.69 59.6124 296.637 60.4466C294.622 61.2809 292.359 61.698 289.85 61.698C286.656 61.698 283.823 61.0534 281.352 59.764C278.88 58.4368 276.96 56.5976 275.591 54.2465C274.26 51.8954 273.595 49.2409 273.595 46.283C273.595 43.3631 274.241 40.7275 275.534 38.3764C276.865 36.0253 278.671 34.2051 280.952 32.9157C283.272 31.5885 285.876 30.9249 288.766 30.9249C291.656 30.9249 294.222 31.5885 296.466 32.9157C298.747 34.2051 300.515 36.0253 301.77 38.3764C303.063 40.7275 303.709 43.4199 303.709 46.4536ZM288.766 35.5323C286.143 35.5323 283.937 36.3286 282.15 37.9213C280.401 39.514 279.374 41.5997 279.07 44.1784H298.462C298.158 41.6376 297.112 39.5709 295.325 37.9782C293.576 36.3476 291.39 35.5323 288.766 35.5323Z" fill="black"/>
<path d="M327.453 30.9249C331.293 30.9249 334.335 32.0435 336.578 34.2809C338.859 36.4803 340 39.7226 340 44.0077V61.3567H334.525V44.6334C334.525 41.7135 333.821 39.514 332.414 38.0351C331.008 36.5562 328.992 35.8167 326.369 35.8167C323.403 35.8167 321.065 36.6889 319.354 38.4333C317.643 40.1397 316.787 42.6046 316.787 45.828V61.3567H311.312V31.2093H316.559V35.7598C317.662 34.2051 319.145 33.0105 321.008 32.1763C322.909 31.342 325.057 30.9249 327.453 30.9249Z" fill="black"/>
</svg>
