<svg width="104" height="176" viewBox="0 0 104 176" fill="none" xmlns="http://www.w3.org/2000/svg">
<path d="M60.442 140.864C50.458 140.864 41.434 138.656 33.37 134.24C25.402 129.824 19.114 123.728 14.506 115.952C9.994 108.08 7.738 99.296 7.738 89.6C7.738 79.904 9.994 71.168 14.506 63.392C19.114 55.52 25.45 49.376 33.514 44.96C41.578 40.544 50.602 38.336 60.586 38.336C68.074 38.336 74.986 39.584 81.322 42.08C87.658 44.576 93.034 48.224 97.45 53.024L90.682 59.792C82.81 51.824 72.874 47.84 60.874 47.84C52.906 47.84 45.658 49.664 39.13 53.312C32.602 56.96 27.466 61.952 23.722 68.288C20.074 74.624 18.25 81.728 18.25 89.6C18.25 97.472 20.074 104.576 23.722 110.912C27.466 117.248 32.602 122.24 39.13 125.888C45.658 129.536 52.906 131.36 60.874 131.36C72.97 131.36 82.906 127.328 90.682 119.264L97.45 126.032C93.034 130.832 87.61 134.528 81.178 137.12C74.842 139.616 67.93 140.864 60.442 140.864Z" fill="white"/>
<path d="M43.603 89.4H36.787V115.032C39.923 117.784 43.635 119.896 47.923 121.368C52.211 122.84 56.723 123.576 61.459 123.576C68.179 123.576 74.227 122.104 79.603 119.16C84.979 116.216 89.203 112.152 92.275 106.968C95.347 101.72 96.883 95.864 96.883 89.4C96.883 82.936 95.347 77.112 92.275 71.928C89.203 66.68 84.979 62.584 79.603 59.64C74.227 56.696 68.147 55.224 61.363 55.224C56.243 55.224 51.539 56.056 47.251 57.72C42.963 59.32 39.347 61.72 36.403 64.92L40.819 69.432C46.131 64.184 52.883 61.56 61.075 61.56C66.515 61.56 71.443 62.776 75.859 65.208C80.211 67.576 83.635 70.904 86.131 75.192C88.627 79.416 89.875 84.152 89.875 89.4C89.875 94.648 88.627 99.384 86.131 103.608C83.635 107.832 80.211 111.16 75.859 113.592C71.507 116.024 66.611 117.24 61.171 117.24C54.259 117.24 48.403 115.512 43.603 112.056V89.4Z" fill="white"/>
</svg>
