<svg width="1440" height="1024" viewBox="0 0 1440 1024" fill="none" xmlns="http://www.w3.org/2000/svg">
<rect width="39.2192" height="9.59067" rx="4.79533" transform="matrix(0.827794 -0.561033 0.554249 0.832351 763 262.114)" fill="#1DA1F2"/>
<rect width="9.55636" height="9.59067" rx="4.77818" transform="matrix(0.827794 -0.561033 0.554249 0.832351 1054 422.741)" fill="#F2E91D"/>
<rect width="87.8675" height="9.59067" rx="4.79533" transform="matrix(0.827794 -0.561033 0.554249 0.832351 206 800.902)" fill="#CE5BCA"/>
<rect width="1440" height="84.7448" fill="white"/>
<g opacity="0.15" clip-path="url(#clip0)">
<path d="M650.941 849.002H629.18V916.855H650.941V849.002Z" fill="#F2F2F2"/>
<path d="M665.312 904.091L612.385 847.374L506.144 848.249L441.697 904.792L442.999 905.546H442.534V1023.16H665.17V905.546L665.312 904.091Z" fill="#F2F2F2"/>
<path d="M612.44 847.495L546.319 917.322V1023.16H665.17V904.038L612.44 847.495Z" fill="#E6E6E6"/>
<path d="M618.299 964.629H594.027V983.954H618.299V964.629Z" fill="#3F3D56"/>
<path d="M618.299 931.18H594.027V950.198H618.299V931.18Z" fill="#3F3D56"/>
<path d="M618.299 964.629H594.027V983.954H618.299V964.629Z" fill="white"/>
<path d="M618.299 931.18H594.027V950.198H618.299V931.18Z" fill="white"/>
<path d="M510.431 959.502H486.159V978.827H510.431V959.502Z" fill="white"/>
<path d="M510.431 926.052H486.159V945.071H510.431V926.052Z" fill="white"/>
<path d="M479.214 849.002H457.452V916.855H479.214V849.002Z" fill="#F2F2F2"/>
<path d="M493.585 904.091L440.657 847.374L334.417 848.249L269.97 904.792L271.272 905.546H270.807V1023.16H493.443V905.546L493.585 904.091Z" fill="#F2F2F2"/>
<path d="M440.713 847.495L374.592 917.322V1023.16H493.442V904.038L440.713 847.495Z" fill="#E6E6E6"/>
<path d="M446.572 964.629H422.299V983.954H446.572V964.629Z" fill="#3F3D56"/>
<path d="M446.572 931.18H422.299V950.198H446.572V931.18Z" fill="#3F3D56"/>
<path d="M446.572 964.629H422.299V983.954H446.572V964.629Z" fill="white"/>
<path d="M446.572 931.18H422.299V950.198H446.572V931.18Z" fill="white"/>
<path d="M338.704 959.502H314.432V978.827H338.704V959.502Z" fill="white"/>
<path d="M338.704 926.052H314.432V945.071H338.704V926.052Z" fill="white"/>
<path d="M303.376 790.444H274.297V881.112H303.376V790.444Z" fill="#F2F2F2"/>
<path d="M322.579 864.055L251.855 788.268L109.892 789.436L23.7755 864.993L25.5152 866H24.8939V1023.16H322.388V866L322.579 864.055Z" fill="#F2F2F2"/>
<path d="M251.929 788.429L163.575 881.736V1023.16H322.388V863.986L251.929 788.429Z" fill="#E6E6E6"/>
<path d="M259.758 944.949H227.324V970.772H259.758V944.949Z" fill="#3F3D56"/>
<path d="M259.758 900.253H227.324V925.666H259.758V900.253Z" fill="#3F3D56"/>
<path d="M259.758 944.949H227.324V970.772H259.758V944.949Z" fill="white"/>
<path d="M259.758 900.253H227.324V925.666H259.758V900.253Z" fill="white"/>
<path d="M115.621 938.098H83.187V963.921H115.621V938.098Z" fill="white"/>
<path d="M115.621 893.401H83.187V918.814H115.621V893.401Z" fill="white"/>
<path d="M695.532 1022.58H0V1023.88H695.532V1022.58Z" fill="#3F3D56"/>
<path d="M109.582 998.677C121.178 998.677 130.579 981.4 130.579 960.087C130.579 938.774 121.178 921.497 109.582 921.497C97.9864 921.497 88.5859 938.774 88.5859 960.087C88.5859 981.4 97.9864 998.677 109.582 998.677Z" fill="#3F3D56"/>
<path d="M111.521 1023.25C103.112 977.805 111.437 932.522 111.522 932.07L113.158 932.32C113.073 932.769 104.796 977.815 113.158 1023.01L111.521 1023.25Z" fill="#1DA1F2"/>
<path d="M128.068 951.789L109.081 960.937L109.864 962.255L128.85 953.107L128.068 951.789Z" fill="#1DA1F2"/>
<path d="M89.8257 956.371L89.0426 957.689L108.027 966.842L108.81 965.524L89.8257 956.371Z" fill="#1DA1F2"/>
<path d="M59.1343 976.05C81.8147 976.05 100.201 942.258 100.201 900.572C100.201 858.887 81.8147 825.095 59.1343 825.095C36.4539 825.095 18.0677 858.887 18.0677 900.572C18.0677 942.258 36.4539 976.05 59.1343 976.05Z" fill="#1DA1F2"/>
<path d="M63.7084 1024C47.2828 935.227 63.5427 846.778 63.7088 845.895L65.3446 846.144C65.1789 847.025 48.9668 935.237 65.345 1023.75L63.7084 1024Z" fill="#3F3D56"/>
<path d="M95.664 884.972L58.5278 902.865L59.3105 904.182L96.4466 886.29L95.664 884.972Z" fill="#3F3D56"/>
<path d="M20.1184 893.935L19.3353 895.253L56.466 913.155L57.249 911.837L20.1184 893.935Z" fill="#3F3D56"/>
<path d="M156.397 958.429C187.433 958.429 212.593 912.187 212.593 855.144C212.593 798.102 187.433 751.859 156.397 751.859C125.361 751.859 100.201 798.102 100.201 855.144C100.201 912.187 125.361 958.429 156.397 958.429Z" fill="#1DA1F2"/>
<path d="M162.958 1024C140.489 902.566 162.731 781.576 162.959 780.368L164.594 780.618C164.367 781.823 142.173 902.576 164.595 1023.75L162.958 1024Z" fill="#3F3D56"/>
<path d="M206.529 834.039L155.712 858.523L156.494 859.841L207.312 835.357L206.529 834.039Z" fill="#3F3D56"/>
<path d="M102.863 846.305L102.08 847.622L152.89 872.119L153.673 870.801L102.863 846.305Z" fill="#3F3D56"/>
<path d="M628.485 998.677C640.081 998.677 649.482 981.4 649.482 960.087C649.482 938.774 640.081 921.497 628.485 921.497C616.889 921.497 607.489 938.774 607.489 960.087C607.489 981.4 616.889 998.677 628.485 998.677Z" fill="#3F3D56"/>
<path d="M626.546 1023.25C634.956 977.805 626.631 932.522 626.546 932.07L624.91 932.32C624.995 932.769 633.272 977.815 624.91 1023.01L626.546 1023.25Z" fill="#1DA1F2"/>
<path d="M610 951.789L609.217 953.107L628.204 962.255L628.986 960.937L610 951.789Z" fill="#1DA1F2"/>
<path d="M648.242 956.371L629.258 965.524L630.041 966.842L649.025 957.689L648.242 956.371Z" fill="#1DA1F2"/>
<path d="M678.933 976.05C701.614 976.05 720 942.258 720 900.572C720 858.887 701.614 825.095 678.933 825.095C656.253 825.095 637.867 858.887 637.867 900.572C637.867 942.258 656.253 976.05 678.933 976.05Z" fill="#1DA1F2"/>
<path d="M674.359 1024C690.785 935.227 674.525 846.778 674.359 845.895L672.723 846.144C672.889 847.025 689.101 935.237 672.723 1023.75L674.359 1024Z" fill="#3F3D56"/>
<path d="M642.404 884.972L641.621 886.29L678.757 904.182L679.54 902.864L642.404 884.972Z" fill="#3F3D56"/>
<path d="M717.949 893.935L680.819 911.837L681.602 913.155L718.732 895.253L717.949 893.935Z" fill="#3F3D56"/>
<path d="M581.671 958.429C612.707 958.429 637.867 912.187 637.867 855.144C637.867 798.102 612.707 751.859 581.671 751.859C550.634 751.859 525.474 798.102 525.474 855.144C525.474 912.187 550.634 958.429 581.671 958.429Z" fill="#1DA1F2"/>
<path d="M575.109 1024C597.578 902.566 575.336 781.576 575.109 780.368L573.473 780.618C573.7 781.823 595.894 902.576 573.473 1023.75L575.109 1024Z" fill="#3F3D56"/>
<path d="M531.538 834.039L530.756 835.357L581.573 859.842L582.356 858.524L531.538 834.039Z" fill="#3F3D56"/>
<path d="M635.205 846.305L584.394 870.801L585.177 872.119L635.988 847.622L635.205 846.305Z" fill="#3F3D56"/>
<path d="M425.425 796.947L432.067 792.162C426.907 791.649 424.787 794.184 423.919 796.19C419.888 794.682 415.5 796.659 415.5 796.659L428.79 801.005C428.119 799.391 426.952 797.984 425.425 796.947Z" fill="#3F3D56"/>
<path d="M263.078 754.701L269.72 749.915C264.56 749.403 262.44 751.938 261.572 753.944C257.541 752.436 253.152 754.412 253.152 754.412L266.442 758.758C265.772 757.145 264.605 755.738 263.078 754.701Z" fill="#3F3D56"/>
<path d="M527.884 735.852L534.526 731.067C529.366 730.554 527.246 733.089 526.378 735.096C522.347 733.588 517.959 735.564 517.959 735.564L531.249 739.91C530.578 738.297 529.411 736.889 527.884 735.852Z" fill="#3F3D56"/>
<path d="M541.295 1015.06C539.529 1015.06 537.795 1015.48 536.266 1016.27C534.714 1015.01 532.788 1014.18 530.721 1013.88C528.654 1013.58 526.536 1013.83 524.624 1014.6C522.711 1015.37 521.087 1016.61 519.948 1018.2C518.808 1019.78 518.203 1021.62 518.206 1023.51H551.36C551.18 1021.21 550.041 1019.07 548.173 1017.5C546.306 1015.93 543.848 1015.06 541.295 1015.06Z" fill="#3F3D56"/>
<path d="M204.335 1015.06C202.569 1015.06 200.834 1015.48 199.306 1016.27C197.753 1015.01 195.827 1014.18 193.76 1013.88C191.693 1013.58 189.575 1013.83 187.663 1014.6C185.751 1015.37 184.126 1016.61 182.987 1018.2C181.848 1019.78 181.243 1021.62 181.245 1023.51H214.4C214.219 1021.21 213.08 1019.07 211.213 1017.5C209.345 1015.93 206.887 1015.06 204.335 1015.06Z" fill="#3F3D56"/>
<path d="M376.783 1015.06C375.018 1015.06 373.283 1015.48 371.755 1016.27C370.202 1015.01 368.276 1014.18 366.209 1013.88C364.142 1013.58 362.024 1013.83 360.112 1014.6C358.199 1015.37 356.575 1016.61 355.436 1018.2C354.297 1019.78 353.691 1021.62 353.694 1023.51H386.849C386.668 1021.21 385.529 1019.07 383.661 1017.5C381.794 1015.93 379.336 1015.06 376.783 1015.06Z" fill="#3F3D56"/>
<path d="M340.395 993.726H244.741V996.505H259.659V1022.91H262.744V996.505H320.848V1022.91H323.934V996.505H340.395V993.726Z" fill="#3F3D56"/>
<path d="M340.583 985.41H244.929V988.19H340.583V985.41Z" fill="#3F3D56"/>
<path d="M340.583 978.462H244.929V981.241H340.583V978.462Z" fill="#3F3D56"/>
<path d="M340.583 971.513H244.929V974.293H340.583V971.513Z" fill="#3F3D56"/>
<path d="M489.754 993.726H394.1V996.505H409.018V1022.91H412.104V996.505H470.207V1022.91H473.293V996.505H489.754V993.726Z" fill="#3F3D56"/>
<path d="M489.942 985.41H394.289V988.19H489.942V985.41Z" fill="#3F3D56"/>
<path d="M489.942 978.462H394.289V981.241H489.942V978.462Z" fill="#3F3D56"/>
<path d="M489.942 971.513H394.289V974.293H489.942V971.513Z" fill="#3F3D56"/>
</g>
<g opacity="0.15" clip-path="url(#clip1)">
<path d="M1370.94 849.002H1349.18V916.855H1370.94V849.002Z" fill="#F2F2F2"/>
<path d="M1385.31 904.091L1332.38 847.374L1226.14 848.249L1161.7 904.792L1163 905.546H1162.53V1023.16H1385.17V905.546L1385.31 904.091Z" fill="#F2F2F2"/>
<path d="M1332.44 847.495L1266.32 917.322V1023.16H1385.17V904.038L1332.44 847.495Z" fill="#E6E6E6"/>
<path d="M1338.3 964.629H1314.03V983.954H1338.3V964.629Z" fill="#3F3D56"/>
<path d="M1338.3 931.18H1314.03V950.198H1338.3V931.18Z" fill="#3F3D56"/>
<path d="M1338.3 964.629H1314.03V983.954H1338.3V964.629Z" fill="white"/>
<path d="M1338.3 931.18H1314.03V950.198H1338.3V931.18Z" fill="white"/>
<path d="M1230.43 959.502H1206.16V978.827H1230.43V959.502Z" fill="white"/>
<path d="M1230.43 926.052H1206.16V945.071H1230.43V926.052Z" fill="white"/>
<path d="M1199.21 849.002H1177.45V916.855H1199.21V849.002Z" fill="#F2F2F2"/>
<path d="M1213.58 904.091L1160.66 847.374L1054.42 848.249L989.97 904.792L991.272 905.546H990.807V1023.16H1213.44V905.546L1213.58 904.091Z" fill="#F2F2F2"/>
<path d="M1160.71 847.495L1094.59 917.322V1023.16H1213.44V904.038L1160.71 847.495Z" fill="#E6E6E6"/>
<path d="M1166.57 964.629H1142.3V983.954H1166.57V964.629Z" fill="#3F3D56"/>
<path d="M1166.57 931.18H1142.3V950.198H1166.57V931.18Z" fill="#3F3D56"/>
<path d="M1166.57 964.629H1142.3V983.954H1166.57V964.629Z" fill="white"/>
<path d="M1166.57 931.18H1142.3V950.198H1166.57V931.18Z" fill="white"/>
<path d="M1058.7 959.502H1034.43V978.827H1058.7V959.502Z" fill="white"/>
<path d="M1058.7 926.052H1034.43V945.071H1058.7V926.052Z" fill="white"/>
<path d="M1023.38 790.444H994.297V881.112H1023.38V790.444Z" fill="#F2F2F2"/>
<path d="M1042.58 864.055L971.855 788.268L829.892 789.436L743.776 864.993L745.515 866H744.894V1023.16H1042.39V866L1042.58 864.055Z" fill="#F2F2F2"/>
<path d="M971.929 788.429L883.575 881.736V1023.16H1042.39V863.986L971.929 788.429Z" fill="#E6E6E6"/>
<path d="M979.758 944.949H947.324V970.772H979.758V944.949Z" fill="#3F3D56"/>
<path d="M979.758 900.253H947.324V925.666H979.758V900.253Z" fill="#3F3D56"/>
<path d="M979.758 944.949H947.324V970.772H979.758V944.949Z" fill="white"/>
<path d="M979.758 900.253H947.324V925.666H979.758V900.253Z" fill="white"/>
<path d="M835.621 938.098H803.187V963.921H835.621V938.098Z" fill="white"/>
<path d="M835.621 893.401H803.187V918.814H835.621V893.401Z" fill="white"/>
<path d="M1415.53 1022.58H720V1023.88H1415.53V1022.58Z" fill="#3F3D56"/>
<path d="M829.582 998.677C841.178 998.677 850.579 981.4 850.579 960.087C850.579 938.774 841.178 921.497 829.582 921.497C817.986 921.497 808.586 938.774 808.586 960.087C808.586 981.4 817.986 998.677 829.582 998.677Z" fill="#3F3D56"/>
<path d="M831.521 1023.25C823.112 977.805 831.437 932.522 831.522 932.07L833.158 932.32C833.073 932.769 824.796 977.815 833.158 1023.01L831.521 1023.25Z" fill="#1DA1F2"/>
<path d="M848.068 951.789L829.081 960.937L829.864 962.255L848.85 953.107L848.068 951.789Z" fill="#1DA1F2"/>
<path d="M809.826 956.371L809.043 957.689L828.027 966.842L828.81 965.524L809.826 956.371Z" fill="#1DA1F2"/>
<path d="M779.134 976.05C801.815 976.05 820.201 942.258 820.201 900.572C820.201 858.887 801.815 825.095 779.134 825.095C756.454 825.095 738.068 858.887 738.068 900.572C738.068 942.258 756.454 976.05 779.134 976.05Z" fill="#1DA1F2"/>
<path d="M783.708 1024C767.283 935.227 783.543 846.778 783.709 845.895L785.345 846.144C785.179 847.025 768.967 935.237 785.345 1023.75L783.708 1024Z" fill="#3F3D56"/>
<path d="M815.664 884.972L778.528 902.865L779.31 904.182L816.447 886.29L815.664 884.972Z" fill="#3F3D56"/>
<path d="M740.118 893.935L739.335 895.253L776.466 913.155L777.249 911.837L740.118 893.935Z" fill="#3F3D56"/>
<path d="M876.397 958.429C907.433 958.429 932.593 912.187 932.593 855.144C932.593 798.102 907.433 751.859 876.397 751.859C845.361 751.859 820.201 798.102 820.201 855.144C820.201 912.187 845.361 958.429 876.397 958.429Z" fill="#1DA1F2"/>
<path d="M882.958 1024C860.489 902.566 882.731 781.576 882.959 780.368L884.594 780.618C884.367 781.823 862.173 902.576 884.595 1023.75L882.958 1024Z" fill="#3F3D56"/>
<path d="M926.529 834.039L875.712 858.523L876.494 859.841L927.312 835.357L926.529 834.039Z" fill="#3F3D56"/>
<path d="M822.863 846.305L822.08 847.622L872.89 872.119L873.673 870.801L822.863 846.305Z" fill="#3F3D56"/>
<path d="M1348.49 998.677C1360.08 998.677 1369.48 981.4 1369.48 960.087C1369.48 938.774 1360.08 921.497 1348.49 921.497C1336.89 921.497 1327.49 938.774 1327.49 960.087C1327.49 981.4 1336.89 998.677 1348.49 998.677Z" fill="#3F3D56"/>
<path d="M1346.55 1023.25C1354.96 977.805 1346.63 932.522 1346.55 932.07L1344.91 932.32C1344.99 932.769 1353.27 977.815 1344.91 1023.01L1346.55 1023.25Z" fill="#1DA1F2"/>
<path d="M1330 951.789L1329.22 953.107L1348.2 962.255L1348.99 960.937L1330 951.789Z" fill="#1DA1F2"/>
<path d="M1368.24 956.371L1349.26 965.524L1350.04 966.842L1369.03 957.689L1368.24 956.371Z" fill="#1DA1F2"/>
<path d="M1398.93 976.05C1421.61 976.05 1440 942.258 1440 900.572C1440 858.887 1421.61 825.095 1398.93 825.095C1376.25 825.095 1357.87 858.887 1357.87 900.572C1357.87 942.258 1376.25 976.05 1398.93 976.05Z" fill="#1DA1F2"/>
<path d="M1394.36 1024C1410.79 935.227 1394.52 846.778 1394.36 845.895L1392.72 846.144C1392.89 847.025 1409.1 935.237 1392.72 1023.75L1394.36 1024Z" fill="#3F3D56"/>
<path d="M1362.4 884.972L1361.62 886.29L1398.76 904.182L1399.54 902.864L1362.4 884.972Z" fill="#3F3D56"/>
<path d="M1437.95 893.935L1400.82 911.837L1401.6 913.155L1438.73 895.253L1437.95 893.935Z" fill="#3F3D56"/>
<path d="M1301.67 958.429C1332.71 958.429 1357.87 912.187 1357.87 855.144C1357.87 798.102 1332.71 751.859 1301.67 751.859C1270.63 751.859 1245.47 798.102 1245.47 855.144C1245.47 912.187 1270.63 958.429 1301.67 958.429Z" fill="#1DA1F2"/>
<path d="M1295.11 1024C1317.58 902.566 1295.34 781.576 1295.11 780.368L1293.47 780.618C1293.7 781.823 1315.89 902.576 1293.47 1023.75L1295.11 1024Z" fill="#3F3D56"/>
<path d="M1251.54 834.039L1250.76 835.357L1301.57 859.842L1302.36 858.524L1251.54 834.039Z" fill="#3F3D56"/>
<path d="M1355.21 846.305L1304.39 870.801L1305.18 872.119L1355.99 847.622L1355.21 846.305Z" fill="#3F3D56"/>
<path d="M1145.43 796.947L1152.07 792.162C1146.91 791.649 1144.79 794.184 1143.92 796.19C1139.89 794.682 1135.5 796.659 1135.5 796.659L1148.79 801.005C1148.12 799.391 1146.95 797.984 1145.43 796.947Z" fill="#3F3D56"/>
<path d="M983.078 754.701L989.72 749.915C984.56 749.403 982.44 751.938 981.572 753.944C977.541 752.436 973.152 754.412 973.152 754.412L986.442 758.758C985.772 757.145 984.605 755.738 983.078 754.701Z" fill="#3F3D56"/>
<path d="M1247.88 735.852L1254.53 731.067C1249.37 730.554 1247.25 733.089 1246.38 735.096C1242.35 733.588 1237.96 735.564 1237.96 735.564L1251.25 739.91C1250.58 738.297 1249.41 736.889 1247.88 735.852Z" fill="#3F3D56"/>
<path d="M1261.3 1015.06C1259.53 1015.06 1257.79 1015.48 1256.27 1016.27C1254.71 1015.01 1252.79 1014.18 1250.72 1013.88C1248.65 1013.58 1246.54 1013.83 1244.62 1014.6C1242.71 1015.37 1241.09 1016.61 1239.95 1018.2C1238.81 1019.78 1238.2 1021.62 1238.21 1023.51H1271.36C1271.18 1021.21 1270.04 1019.07 1268.17 1017.5C1266.31 1015.93 1263.85 1015.06 1261.3 1015.06Z" fill="#3F3D56"/>
<path d="M924.335 1015.06C922.569 1015.06 920.834 1015.48 919.306 1016.27C917.753 1015.01 915.827 1014.18 913.76 1013.88C911.693 1013.58 909.575 1013.83 907.663 1014.6C905.751 1015.37 904.126 1016.61 902.987 1018.2C901.848 1019.78 901.243 1021.62 901.245 1023.51H934.4C934.219 1021.21 933.08 1019.07 931.213 1017.5C929.345 1015.93 926.887 1015.06 924.335 1015.06Z" fill="#3F3D56"/>
<path d="M1096.78 1015.06C1095.02 1015.06 1093.28 1015.48 1091.75 1016.27C1090.2 1015.01 1088.28 1014.18 1086.21 1013.88C1084.14 1013.58 1082.02 1013.83 1080.11 1014.6C1078.2 1015.37 1076.57 1016.61 1075.44 1018.2C1074.3 1019.78 1073.69 1021.62 1073.69 1023.51H1106.85C1106.67 1021.21 1105.53 1019.07 1103.66 1017.5C1101.79 1015.93 1099.34 1015.06 1096.78 1015.06Z" fill="#3F3D56"/>
<path d="M1060.39 993.726H964.741V996.505H979.659V1022.91H982.744V996.505H1040.85V1022.91H1043.93V996.505H1060.39V993.726Z" fill="#3F3D56"/>
<path d="M1060.58 985.41H964.929V988.19H1060.58V985.41Z" fill="#3F3D56"/>
<path d="M1060.58 978.462H964.929V981.241H1060.58V978.462Z" fill="#3F3D56"/>
<path d="M1060.58 971.513H964.929V974.293H1060.58V971.513Z" fill="#3F3D56"/>
<path d="M1209.75 993.726H1114.1V996.505H1129.02V1022.91H1132.1V996.505H1190.21V1022.91H1193.29V996.505H1209.75V993.726Z" fill="#3F3D56"/>
<path d="M1209.94 985.41H1114.29V988.19H1209.94V985.41Z" fill="#3F3D56"/>
<path d="M1209.94 978.462H1114.29V981.241H1209.94V978.462Z" fill="#3F3D56"/>
<path d="M1209.94 971.513H1114.29V974.293H1209.94V971.513Z" fill="#3F3D56"/>
</g>
<defs>
<clipPath id="clip0">
<rect width="720" height="293" fill="white" transform="translate(0 731)"/>
</clipPath>
<clipPath id="clip1">
<rect width="720" height="293" fill="white" transform="translate(720 731)"/>
</clipPath>
</defs>
</svg>
