<svg width="42" height="42" viewBox="0 0 42 42" fill="none" xmlns="http://www.w3.org/2000/svg">
<path d="M42 21C42 32.5978 32.5978 42 21 42C9.40333 42 0 32.5978 0 21C0 9.40333 9.40333 0 21 0C32.5978 0 42 9.40333 42 21Z" fill="#FFCC4D"/>
<path d="M35.7 21.2333C35.567 21.1342 33.4471 19.5697 30.2796 18.4987C30.31 18.3645 30.3333 18.2268 30.3333 18.0833C30.3333 17.6528 30.1711 17.2632 29.9145 16.9587C32.0168 16.352 33.8041 16.3333 33.8356 16.3333C34.4785 16.331 35 15.8083 34.9988 15.1643C34.9976 14.5215 34.4773 14 33.8333 14C33.5755 14 27.4738 14.0443 23.6751 17.8418C23.3415 18.1755 23.2411 18.6772 23.422 19.1135C23.6016 19.5487 24.0286 19.8333 24.5 19.8333C29.855 19.8333 34.2568 23.0685 34.3011 23.1012C34.5111 23.2575 34.7561 23.3333 34.9988 23.3333C35.3546 23.3333 35.7046 23.1712 35.9345 22.8655C36.3195 22.3487 36.2145 21.6195 35.7 21.2333V21.2333ZM18.3248 17.8418C14.5273 14.0443 8.42448 14 8.16665 14C7.52265 14 7.00115 14.5215 7.00115 15.1643C6.99998 15.8083 7.52148 16.331 8.16548 16.3333C8.19582 16.3333 9.98315 16.352 12.0866 16.9587C11.8288 17.2632 11.6666 17.6528 11.6666 18.0833C11.6666 18.2268 11.6888 18.3645 11.7215 18.4987C8.55282 19.5697 6.43298 21.1342 6.29998 21.2333C5.78432 21.6195 5.68048 22.351 6.06665 22.8667C6.29532 23.1723 6.64648 23.3333 7.00115 23.3333C7.24382 23.3333 7.48998 23.2575 7.69998 23.1C7.74315 23.0673 12.1181 19.8333 17.5 19.8333C17.9713 19.8333 18.3971 19.5487 18.578 19.1135C18.7588 18.6772 18.6585 18.1755 18.3248 17.8418V17.8418ZM8.16665 24.8068C8.16665 29.4315 13.5286 35.3068 21 35.3068C28.4713 35.3068 33.8333 29.4735 33.8333 24.8068C33.8333 24.8068 21.7781 28.0222 8.16665 24.8068Z" fill="#66471B"/>
<path d="M21.6358 27.5381L20.363 27.5322C16.611 27.4459 14 26.8369 14 26.8369V34.9581C14 38.4581 16.3333 41.9581 21 41.9581C25.6667 41.9581 28 38.4581 28 34.9581V26.8847C25.7577 27.3456 23.5818 27.5182 21.6358 27.5381V27.5381Z" fill="#E8596E"/>
<path d="M21 37.1514C21.3512 37.1514 21.6359 36.8668 21.6359 36.5156V27.5393L20.363 27.5334V36.5156C20.3642 36.8668 20.6489 37.1514 21 37.1514Z" fill="#DD2F45"/>
</svg>
